<svg id="그룹_186" data-name="그룹 186" xmlns="http://www.w3.org/2000/svg" width="98.82" height="98.942" viewBox="0 0 98.82 98.942">
  <defs>
    <style>
      .cls-1 {
        fill: #757575;
      }
    </style>
  </defs>
  <path id="패스_462" data-name="패스 462" class="cls-1" d="M446.284,100.574c-.541.19-1.094.409-1.581.635a9.409,9.409,0,0,0-2.183,1.394,8.871,8.871,0,0,0-2.724,4.414,9.061,9.061,0,0,0,3.816,10.516c2.181,1.518,4.6,2.65,6.841,4.085a21.067,21.067,0,0,1,5.267,4.231,1.264,1.264,0,0,1,.039,1.82,14.077,14.077,0,0,0-2.486,4.769,3.285,3.285,0,0,0,.988,3.466c5.385,5.332,10.729,10.7,16.087,16.063,1.5,1.5,1.5,1.5-.024,3.018q-14.23,14.231-28.464,28.459a8.621,8.621,0,0,0-2.369,8.755,8.715,8.715,0,0,0,7.019,6.68,8.55,8.55,0,0,0,8.214-2.415q14.159-14.163,28.322-28.323c.231-.232.461-.468.7-.695.895-.861,1.173-.865,2.047-.035.214.2.42.415.628.624,5.289,5.289,10.6,10.557,15.849,15.883a3.513,3.513,0,0,0,3.829.994,14.745,14.745,0,0,0,4.4-2.356,1.429,1.429,0,0,1,2.068.1,22.474,22.474,0,0,1,4.07,5.151c1.239,1.971,2.354,4.018,3.539,6.023a9.357,9.357,0,0,0,5.822,4.68,9.39,9.39,0,0,0,7.869-16.78c-1.923-1.321-4.016-2.355-6.01-3.555a26.722,26.722,0,0,1-5.682-4.2c-1.232-1.28-1.263-1.483-.289-2.931a15.5,15.5,0,0,0,2.093-3.992,3.587,3.587,0,0,0-1.027-3.932c-3.433-3.385-6.829-6.81-10.238-10.221-1.374-1.375-1.337-1.512.475-2.261a59.747,59.747,0,0,0,15.68-9.1,22.965,22.965,0,0,0,2.72-33.552,20.929,20.929,0,0,0-12.651-7.005,22.587,22.587,0,0,0-19.014,5.146,40.687,40.687,0,0,0-7.791,9.7,58.343,58.343,0,0,0-4.848,9.767c-.288.728-.492,1-.854.88l-.021-.029a2.591,2.591,0,0,1-.679-.539c-3.558-3.54-7.129-7.067-10.635-10.66a3.471,3.471,0,0,0-3.739-1.014,14.9,14.9,0,0,0-4.262,2.2c-1.3.872-1.548.841-2.7-.251a30.708,30.708,0,0,1-5.063-7.107c-.846-1.442-1.637-2.918-2.551-4.32C454.606,101.436,450.186,99.2,446.284,100.574Zm-2.054,93.508c-2.9-2.846-2.355-6.8,1.45-10.166a12.588,12.588,0,0,0,3.12,5.463,12.371,12.371,0,0,0,5.534,3.187C451.022,196.344,447.1,196.906,444.23,194.082Zm33.583-24.889q-9.607,9.531-19.148,19.129a3.073,3.073,0,0,1-2.443,1.107c-3.529-.065-7.3-3.768-7.435-7.147a3.2,3.2,0,0,1,.955-2.494q9.884-9.882,19.772-19.757a3.364,3.364,0,0,1,3.67-.644,8.374,8.374,0,0,1,5.664,5.675A3.8,3.8,0,0,1,477.813,169.193Zm4.393-4.522a11.981,11.981,0,0,0-8.652-8.615c1.972-2.392,4.259-3.949,7.451-3.041a5.844,5.844,0,0,1,4.4,5.012C485.86,160.922,484.331,162.932,482.206,164.67Zm47.367,18.023a26.215,26.215,0,0,1,2.749,1.7,6.329,6.329,0,1,1-9.035,8.593c-1.161-1.737-2.124-3.6-3.191-5.4a27.891,27.891,0,0,0-5.921-7.574c1.592-1.48,3.137-2.945,4.544-4.542.237-.27.4-.362.68-.032C522.2,178.677,525.937,180.615,529.573,182.693Zm-8.763-17.325c.155.156.384.285.356.589-.175.421-.324.854-.531,1.258a26.95,26.95,0,0,1-3.842,5.441,43.078,43.078,0,0,1-9.158,8.127c-.55.349-1.156.608-1.711.95-.733.452-1.23.284-1.841-.334q-8.128-8.213-16.336-16.344c-.511-.506-.7-.847-.244-1.516a6.9,6.9,0,0,0,1.115-3.213.85.85,0,0,1,.662-.827c6.185-2.1,12.381-4.168,18.494-6.477a.782.782,0,0,1,.945.242Q514.756,159.324,520.81,165.367Zm12.2-46.936c.128-.47.236-.945.387-1.554a18.093,18.093,0,0,1,1.134,7.042c-.189,6.684-3.24,11.868-8.385,15.953a56.97,56.97,0,0,1-12.538,7.242c-7.149,3.17-14.57,5.6-21.976,8.068a1.661,1.661,0,0,1-.986.314,1.022,1.022,0,0,1,.744-.532c5.654-3.22,11.372-6.329,16.859-9.836a86.752,86.752,0,0,0,16.476-12.979C528.495,128.189,531.554,123.791,533.012,118.431Zm-3.162-.826a31.651,31.651,0,0,1-8.279,13.047,88.767,88.767,0,0,1-16.433,12.562c-5.495,3.433-11.188,6.519-16.845,9.671-.237.133-.459.412-.629.321l42.093-42.276A10.26,10.26,0,0,1,529.85,117.605Zm-2.431-9.075c-5.7,5.688-11.29,11.267-16.875,16.852q-12.588,12.587-25.17,25.181c-.139.139-.28.274-.42.413-.1.1-.205.141-.333.035-.15-.126-.039-.226.02-.333.046-.086.094-.172.143-.257,4.691-7.979,9.145-16.105,14.5-23.679,3.431-4.856,7.108-9.508,11.833-13.2a26.383,26.383,0,0,1,10.593-5.346A8.759,8.759,0,0,1,527.419,108.531Zm-41.546,30.136c2.054-5.682,3.782-11.489,6.51-16.915a46.1,46.1,0,0,1,7.855-11.7c5.661-5.823,12.49-7.58,20.323-5.5.217.058.427.148.755.264-1.206.359-2.318.634-3.39,1.022a27.542,27.542,0,0,0-3.15,1.35,42.045,42.045,0,0,0-12.242,10.035c-5.949,6.743-10.577,14.392-15.105,22.107-1.06,1.806-2.1,3.624-3.161,5.428a1.98,1.98,0,0,1-.9,1C484.25,143.273,485.044,140.963,485.874,138.667ZM467.88,119.519a14.914,14.914,0,0,1,3.922-2.2.947.947,0,0,1,1.2.224q5.956,6.013,11.965,11.973a.916.916,0,0,1,.246,1.112q-3.226,9.1-6.422,18.22c-.122.348-.213.669-.676.716a8.862,8.862,0,0,0-3.843,1.383c-.107.067-.218.13-.348.207-.15-.131-.3-.251-.442-.388q-8.456-8.454-16.918-16.9a.821.821,0,0,1-.22-1.022,15.089,15.089,0,0,1,2.234-4.016A57.844,57.844,0,0,1,467.88,119.519Zm-20.185-16.1a6.383,6.383,0,0,1,6.591,3.123c.871,1.422,1.674,2.884,2.517,4.323.892,1.524,1.8,3.036,2.839,4.47a21.023,21.023,0,0,0,3.518,3.85,53.64,53.64,0,0,0-4.573,4.566c-.28.322-.428.25-.67-.031-2.2-2.55-5.032-4.255-7.883-5.936-1.465-.863-2.955-1.683-4.406-2.568a6.277,6.277,0,0,1-3.081-6.765A6.357,6.357,0,0,1,447.7,103.417Z" transform="translate(-439.151 -100.164)"/>
</svg>
