<svg id="그룹_188" data-name="그룹 188" xmlns="http://www.w3.org/2000/svg" width="117.531" height="118.626" viewBox="0 0 117.531 118.626">
  <defs>
    <style>
      .cls-1 {
        fill: #757575;
      }
    </style>
  </defs>
  <g id="그룹_187" data-name="그룹 187" transform="translate(0 0)">
    <g id="그룹_183" data-name="그룹 183" transform="translate(0 0)">
      <path id="패스_456" data-name="패스 456" class="cls-1" d="M702.2,142.593c1.629-.513,1.634-.5,1.156-2.178-2.131-7.5-4.25-15-6.447-22.472-.445-1.515-.333-2.577.991-3.627a7.926,7.926,0,0,0,2.845-5.415c.974-8.193,1.974-16.383,2.693-24.6a5.3,5.3,0,0,0-3.757-5.614,5.4,5.4,0,0,0-6.454,2.346,6.858,6.858,0,0,0-.931,2.838c-.928,6.609-1.894,13.211-2.823,19.82-.278,1.98-.4,2.089-2.41,2.091-3.858.005-7.715-.012-11.574.008a5.957,5.957,0,0,0-5,2.2,5.411,5.411,0,0,0,1.183,7.855,3.353,3.353,0,0,1,1.639,3.254c-.052,7.291-.03,14.583-.013,21.874,0,.538-.256,1.282.47,1.518a3.694,3.694,0,0,0,2.389-.047c.379-.137.363-.563.377-.9.034-.926.013-1.852.014-2.778q0-9.9,0-19.791c0-1.892.16-2.052,2.039-2.055q6.482-.012,12.963,0c1.568,0,1.732.134,2.17,1.664q3.347,11.682,6.677,23.369a2,2,0,0,1,.1,1.463h.463C701.079,142.693,701.73,142.743,702.2,142.593ZM691.716,113.34c-.116.006-.232.014-.347.014l-7.984,0c-2.7,0-5.4.009-8.1,0-1.54-.006-2.349-.674-2.367-1.913-.021-1.275.842-2.013,2.409-2.016,4.9-.008,9.8,0,14.7-.005,1.8,0,2.361-.546,2.614-2.352q1.623-11.559,3.282-23.112c.2-1.366,1.082-2.158,2.207-2.039a2.023,2.023,0,0,1,1.75,2.514q-1.3,11.9-2.624,23.789A5.825,5.825,0,0,1,691.716,113.34Z" transform="translate(-586.578 -24.789)"/>
      <path id="패스_457" data-name="패스 457" class="cls-1" d="M704.008,141.287c-2.386-8.2-4.7-16.411-7.071-24.612a1.11,1.11,0,0,1,.456-1.441,9.185,9.185,0,0,0,3.768-6.515q1.416-12.173,2.674-24.364a5.489,5.489,0,0,0-2.924-5.5c-3.331-1.98-8.336-.271-8.985,5.061-.837,6.882-1.948,13.73-2.881,20.6-.119.879-.443,1.007-1.222,1q-6.421-.055-12.844-.008a5.888,5.888,0,0,0-5.848,4.507,5.745,5.745,0,0,0,2.848,6.486,1.568,1.568,0,0,1,.951,1.691c-.029,7.328-.016,14.657-.016,21.985,0,2.74,0,2.694,2.751,2.754.969.022,1.21-.251,1.205-1.21-.041-7.714,0-15.429-.051-23.142-.008-1.1.325-1.307,1.342-1.3,4.551.046,9.1.05,13.653-.035.953-.017,1.29.2,1.547,1.113,2.353,8.365,4.761,16.714,7.154,25.067a2,2,0,0,0-.1-1.463q-3.326-11.688-6.677-23.369c-.438-1.53-.6-1.66-2.17-1.664q-6.481-.02-12.963,0c-1.879,0-2.037.163-2.039,2.055q-.008,9.9,0,19.791c0,.926.019,1.852-.015,2.778-.013.342,0,.768-.377.9a3.694,3.694,0,0,1-2.389.047c-.727-.236-.469-.98-.47-1.518-.017-7.291-.039-14.583.013-21.874a3.353,3.353,0,0,0-1.639-3.254A5.412,5.412,0,0,1,670.5,108a5.956,5.956,0,0,1,5-2.2c3.859-.021,7.716,0,11.574-.008,2.013,0,2.132-.111,2.41-2.091.929-6.609,1.9-13.211,2.823-19.82a6.857,6.857,0,0,1,.931-2.838,5.4,5.4,0,0,1,6.454-2.346,5.3,5.3,0,0,1,3.757,5.614c-.719,8.219-1.718,16.41-2.693,24.6a7.927,7.927,0,0,1-2.844,5.415c-1.324,1.05-1.436,2.112-.992,3.627,2.2,7.476,4.315,14.976,6.447,22.471.478,1.681.473,1.665-1.156,2.178-.473.15-1.125.1-1.236.822a6.143,6.143,0,0,1,2.24-.74C704.072,142.5,704.274,142.2,704.008,141.287Z" transform="translate(-586.587 -24.799)"/>
      <path id="패스_458" data-name="패스 458" class="cls-1" d="M592.326,142.179q3.326-11.69,6.677-23.372c.506-1.77.669-1.887,2.494-1.89q6.425-.012,12.849,0c1.869,0,2.025.164,2.026,2.067.005,7.293,0,14.586.012,21.878,0,.548-.26,1.3.372,1.581a3.484,3.484,0,0,0,2.491.022c.486-.158.379-.71.382-1.121.014-1.929.005-3.858.006-5.788q0-8.623-.006-17.248a2.234,2.234,0,0,1,1.046-2.136c2.468-1.605,3.321-3.809,2.582-6.331a5.693,5.693,0,0,0-5.706-4.051c-3.7-.04-7.408-.009-11.112-.01-2.784,0-2.794,0-3.178-2.714-.875-6.188-1.775-12.373-2.644-18.563-.07-.5-.146-.993-.245-1.484a5.551,5.551,0,0,0-6.511-4.5,5.494,5.494,0,0,0-4.535,6.06c.375,3.643.8,7.282,1.209,10.921.434,3.831.926,7.658,1.263,11.5.279,3.183,1.235,5.959,3.854,7.962.8.613.706,1.346.467,2.179q-2.958,10.35-5.918,20.7c-.307,1.076-.6,2.156-.92,3.228-.223.752.036,1.134.775,1.374.61.2,1.438.1,1.671.975h.463A1.791,1.791,0,0,1,592.326,142.179Zm3.255-34.085c-.67-5.2-1.187-10.416-1.769-15.626q-.417-3.735-.835-7.47c-.03-.268-.071-.536-.081-.8a2.036,2.036,0,0,1,1.8-2.281,2,2,0,0,1,2.138,1.827c.395,2.551.759,5.107,1.128,7.662q1.155,8.008,2.3,16.016a1.974,1.974,0,0,0,2.313,2c4.862.011,9.722,0,14.583.005a6.6,6.6,0,0,1,1.039.035,2,2,0,0,1,1.745,1.989A1.91,1.91,0,0,1,618,113.335c-2.854.035-5.708.011-8.563.011v.01c-2.585,0-5.17.018-7.754,0C598.32,113.323,596.011,111.427,595.581,108.094Z" transform="translate(-588.702 -24.789)"/>
      <path id="패스_459" data-name="패스 459" class="cls-1" d="M599.585,118.081c.146-.511.222-.856.94-.847,4.785.063,9.569.086,14.354.044.993-.009,1.182.29,1.177,1.223-.04,7.215-.023,14.432-.023,21.647,0,2.761,0,2.7,2.718,2.786,1.071.034,1.244-.309,1.239-1.287-.041-7.871-.014-15.744-.037-23.615a1.359,1.359,0,0,1,.859-1.5,5.235,5.235,0,0,0,2.642-2.941,5.882,5.882,0,0,0-5.646-8.083c-4.283-.042-8.567-.028-12.85.007-.753.006-1.065-.171-1.174-.972-.974-7.062-2-14.118-3-21.177A5.929,5.929,0,1,0,589,84.682c.82,7.784,1.718,15.559,2.574,23.339a9.9,9.9,0,0,0,4.151,7.418c.493.348.329.669.21,1.081q-1.6,5.545-3.171,11.1c-1.31,4.588-2.6,9.179-3.948,13.755-.227.769-.106,1.073.7,1.267a4.713,4.713,0,0,1,2.221.787c-.233-.872-1.061-.777-1.671-.975-.739-.24-1-.622-.775-1.374.318-1.073.613-2.153.92-3.228q2.947-10.353,5.918-20.7c.239-.834.334-1.566-.467-2.179-2.619-2-3.575-4.778-3.854-7.962-.337-3.839-.828-7.666-1.263-11.5-.413-3.639-.834-7.278-1.209-10.921a5.494,5.494,0,0,1,4.535-6.06,5.551,5.551,0,0,1,6.511,4.5c.1.492.176.988.246,1.484.869,6.19,1.77,12.375,2.644,18.563.384,2.714.394,2.713,3.178,2.714,3.7,0,7.408-.03,11.112.01a5.693,5.693,0,0,1,5.705,4.051c.739,2.521-.114,4.725-2.582,6.331a2.234,2.234,0,0,0-1.046,2.136q.017,8.624.006,17.248c0,1.93.008,3.859-.006,5.788,0,.411.1.963-.382,1.121a3.484,3.484,0,0,1-2.491-.022c-.631-.282-.371-1.033-.372-1.581-.015-7.292-.007-14.585-.012-21.878,0-1.9-.157-2.064-2.026-2.067q-6.424-.012-12.849,0c-1.825,0-1.989.12-2.494,1.89q-3.343,11.684-6.676,23.372a1.79,1.79,0,0,0-.137,1.236,5.6,5.6,0,0,0,.5-1.266Q596.133,130.116,599.585,118.081Z" transform="translate(-588.715 -24.799)"/>
      <path id="패스_460" data-name="패스 460" class="cls-1" d="M675.3,77.962q-14.238,0-28.478,0-14.355,0-28.71,0c-2.184,0-2.784.586-2.786,2.709s0,4.245,0,6.366c0,2.174.552,2.731,2.727,2.732,7.216,0,14.433.022,21.648-.024.991-.006,1.185.3,1.179,1.225-.037,7.64-.021,15.281-.021,22.921,0,5.4-.017,10.805.019,16.207.005.817-.226,1.051-1.032,1.018-1.541-.063-3.087-.039-4.629-.011A1.981,1.981,0,0,0,633,133.326q-.045,3.646,0,7.293a2.01,2.01,0,0,0,2.189,2.274q11.576.035,23.153,0c1.47,0,2.17-.77,2.18-2.254q.026-3.646,0-7.292c-.011-1.556-.691-2.222-2.279-2.246-1.466-.021-2.936-.066-4.4.017-.962.053-1.211-.242-1.208-1.2q.049-19.449,0-38.9c0-1,.215-1.285,1.256-1.278,7.254.051,14.509.03,21.763.026,1.979,0,2.606-.645,2.611-2.65q.008-3.067,0-6.136C678.269,78.506,677.737,77.962,675.3,77.962Zm-19.844,57.055c.838-.006,1.189.118,1.167,1.091-.065,2.861-.014,2.862-2.871,2.862h-6.936c-2.929,0-5.858-.028-8.786.019-.815.012-1.141-.126-1.128-1.051.038-2.9-.006-2.9,2.947-2.9C645.053,135.033,650.256,135.051,655.458,135.017Zm-6.705-5.03c.006.928-.257,1.149-1.152,1.133-2.8-.048-2.805-.011-2.805-2.822,0-12.415.015-24.829-.027-37.244,0-1.088.307-1.337,1.341-1.309,2.619.071,2.62.022,2.62,2.65v18.043C648.729,116.955,648.709,123.472,648.753,129.987ZM671.56,85.833q-25.567,0-51.132.024c-.955,0-1.217-.21-1.193-1.184.07-2.775.022-2.776,2.836-2.776h24.756c8.792,0,17.584.013,26.375-.021.9,0,1.177.205,1.159,1.137C674.309,85.833,674.352,85.833,671.56,85.833Z" transform="translate(-588.01 -24.801)"/>
      <path id="패스_461" data-name="패스 461" class="cls-1" d="M636.972,53.809c3.087-.026,6.174-.008,9.26-.008,3.01,0,6.02-.015,9.029.007,1.087.008,2.116-.044,2.633-1.21.526-1.188-.176-1.954-.948-2.719-2.711-2.691-5.4-5.408-8.116-8.09a1.924,1.924,0,0,1-.623-1.515q.039-5.556,0-11.113c-.007-.945.443-2.24-.2-2.743-.6-.474-1.846-.091-2.8-.176-.787-.07-.949.231-.943.967.033,4.322,0,8.643.03,12.965a2.15,2.15,0,0,1-.694,1.715c-2.755,2.7-5.458,5.456-8.2,8.169a2.07,2.07,0,0,0,1.565,3.751Zm7.8-7.54c1.5-1.5,1.495-1.494,3.012.011,1.135,1.127,2.286,2.24,3.659,3.585H641.18Z" transform="translate(-587.502 -26.175)"/>
    </g>
  </g>
</svg>
