<svg xmlns="http://www.w3.org/2000/svg" width="113.534" height="84.706" viewBox="0 0 113.534 84.706">
  <defs>
    <style>
      .cls-1 {
        fill: #757575;
      }
    </style>
  </defs>
  <path id="패스_455" data-name="패스 455" class="cls-1" d="M413.928-23.735c1.848,3.492,5.148,4.409,9.213,4.369,12.6-.126,25.2-.047,37.8-.046,2.363,0,2.433.073,2.435,2.426,0,.63,0,1.26-.019,1.89a1.148,1.148,0,0,1-1.244,1.249c-1.037.04-2.075.02-3.112.021q-4.614.006-9.228,0a6.445,6.445,0,0,0-1.329.074,1.954,1.954,0,0,0-1.58,1.779,1.863,1.863,0,0,0,1.254,1.9,4.069,4.069,0,0,0,1.642.216q20.4,0,40.8,0a3.882,3.882,0,0,0,1.64-.227,1.855,1.855,0,0,0,1.211-1.93,1.943,1.943,0,0,0-1.6-1.756,7.065,7.065,0,0,0-1.331-.061c-3.891,0-7.782.009-11.673,0-1.644-.006-1.864-.234-1.886-1.858-.011-.814-.015-1.63.016-2.445a1.152,1.152,0,0,1,1.24-1.256c.481-.021.962-.024,1.445-.024,12.563,0,25.127-.1,37.687.051a9.377,9.377,0,0,0,9.44-9.4c-.041-18.752-.006-37.5-.022-56.255a9.208,9.208,0,0,0-9.554-9.538q-47.028-.009-94.055,0c-4.312,0-7.956,1.591-9.6,5.8a5.354,5.354,0,0,0-.3,1.637v60.269A11.291,11.291,0,0,0,413.928-23.735Zm56.335,9.509h-.11c-2.4,0-2.4,0-2.4-2.415,0-2.37,0-2.37,2.33-2.37,2.453,0,2.453,0,2.453,2.469C472.537-14.226,472.537-14.226,470.262-14.226ZM417.94-84.706c0-3.593,1.884-5.469,5.492-5.469h93.4c3.666,0,5.517,1.866,5.517,5.558q0,27.687,0,55.375,0,5.506-5.55,5.506H423.4c-3.6,0-5.458-1.866-5.458-5.484Q417.937-56.962,417.94-84.706Z" transform="translate(-413.212 94.555)"/>
</svg>
