<svg id="그룹_184" data-name="그룹 184" xmlns="http://www.w3.org/2000/svg" width="103.539" height="119.302" viewBox="0 0 103.539 119.302">
  <defs>
    <style>
      .cls-1 {
        fill: #757575;
      }
    </style>
  </defs>
  <path id="패스_448" data-name="패스 448" class="cls-1" d="M202.371,124.626a18.63,18.63,0,0,0-.435-4.153,11.974,11.974,0,0,0-11.52-9.254q-3.058-.033-6.116-.019c-1.023,0-4.368.636-4.987-.435a2.481,2.481,0,0,1-.216-1.291c.024-1.9-.492-4.392.978-5.861a11.643,11.643,0,0,0,3.5-8.561c.126-7.513-7.283-13.058-14.2-11.5a2.245,2.245,0,0,1-2.831-1.042,3.876,3.876,0,0,0-.992-.973,11.749,11.749,0,0,0-10.783-2.474,2.436,2.436,0,0,1-2.449-.543,17.734,17.734,0,0,0-7.393-3.826,27.782,27.782,0,0,0-9.088-.5,16.759,16.759,0,0,0-4.379.957,22.041,22.041,0,0,0-9.366,7.039c-.331.418-.6.957-1.245.927a18.865,18.865,0,0,0-2.548.19A20.64,20.64,0,0,0,104.4,90.28a21.775,21.775,0,0,0-5.509,15.045q-.087,12.967,0,25.934c.017,2.831.832,5.341,3.334,7.051a7.429,7.429,0,0,0,5.086,1.227c.819-.079,1.159.21,1.1,1.023-.026.347,0,.7,0,1.047q0,18.956,0,37.914a18.18,18.18,0,0,0,.458,4.73,11.751,11.751,0,0,0,7.3,8.375c2.021.788,4.247.57,6.37.583q21.152.134,42.348.117c2.638,0,5.374-.017,7.761-1.139a11.3,11.3,0,0,0,5.6-6.684,21.494,21.494,0,0,0,.768-8.86c-.045-.5-.063-1.1.337-1.41a1.451,1.451,0,0,1,.761-.226c6.841-.66,14.134,1.515,19.293-4.331,2.344-2.658,2.944-5.844,2.955-9.189Q202.428,143.057,202.371,124.626Zm-5.092,18.5q0,9.537,0,19.076c0,4.9-2.828,7.739-7.7,7.741-3.257,0-6.515-.047-9.77.029-1.013.024-1.261-.292-1.16-1.223a10.4,10.4,0,0,0,0-2.207c-.1-.965.136-1.314,1.217-1.285,3.293.088,6.591.036,9.887.031,2.007,0,2.865-.81,2.867-2.793q.016-19.425,0-38.851c0-1.983-.859-2.791-2.865-2.793-3.334-.005-6.669-.024-10,.015-.8.01-1.217-.083-1.1-1.036.139-1.177-.48-2.769.24-3.439.633-.589,2.205-.187,3.363-.192q3.838-.017,7.677,0c4.4.015,7.322,2.924,7.342,7.386C197.3,130.1,197.279,136.613,197.279,143.127Zm-9.292,16.693c0,.666-.18.843-.835.833-2.519-.037-5.04-.047-7.558.005-.776.016-.947-.221-.943-.964.031-5.542.017-11.085.017-16.628,0-5.5.023-11.008-.023-16.512-.007-.874.208-1.1,1.076-1.073,2.479.065,4.961.047,7.441.007.67-.011.825.193.825.843Q187.956,143.076,187.987,159.82ZM150.709,83.786c1.4,1.429,2.064,1.547,3.773.67a6.889,6.889,0,0,1,9.682,3.485c.868,1.954,2.059,2.375,3.875,1.366a6.957,6.957,0,0,1,9.6,9.528,7.137,7.137,0,0,1-8.405,3c-.55-.176-1.072-.441-1.618-.633a2.279,2.279,0,0,0-3.093,1.878,9.328,9.328,0,0,0-.045,1.276q0,8.724,0,17.448c0,.272.006.543,0,.815-.044,1.714-.923,2.713-2.365,2.692-1.386-.019-2.263-1.008-2.277-2.658-.023-2.83.014-5.661-.016-8.491a24.858,24.858,0,0,0-.217-3.826c-.711-4.253-3.444-6.592-7.484-7.584a23.189,23.189,0,0,0-3.8-.511,6.669,6.669,0,0,0-5.358,1.983,9.141,9.141,0,0,1-12.46.13,7.651,7.651,0,0,0-3.49-1.965,4.709,4.709,0,0,0-5.5,2.428,11.583,11.583,0,0,1-10.223,6.553c-1.688.078-2.416,1-2.419,2.9-.009,5.661,0,11.322-.007,16.983a7.514,7.514,0,0,1-.092,1.388,2.356,2.356,0,0,1-2.488,1.97,2.309,2.309,0,0,1-2.266-2.205c-.064-.809-.032-1.627-.032-2.441q0-6.281,0-12.563c0-4.226-.022-8.453,0-12.678A16.206,16.206,0,0,1,117.53,88.4a13.263,13.263,0,0,1,4.4-.147,2.9,2.9,0,0,0,3.163-1.59A16.134,16.134,0,0,1,150.709,83.786Zm16.3,104.765c-6.321.021-12.641.007-18.962.007q-13.668,0-27.337,0a6.894,6.894,0,0,1-6.48-3.936,2.229,2.229,0,0,1-.168-.43.979.979,0,0,1,.022-.284h2.658q15.414,0,30.827,0a4.01,4.01,0,0,0,1.493-.139,2.313,2.313,0,0,0-.4-4.477,7.815,7.815,0,0,0-1.161-.033c-10.934,0-21.87-.015-32.8.023-.965,0-1.2-.219-1.194-1.19q.048-30.478.006-60.957c0-.9.147-1.307,1.151-1.531a15.8,15.8,0,0,0,10.562-7.88c.594-1.026.82-1.089,1.811-.2a13.907,13.907,0,0,0,5.905,3.329,13.659,13.659,0,0,0,13.261-3.252,2.328,2.328,0,0,1,1.855-.707,14.191,14.191,0,0,1,4.1.731,4.2,4.2,0,0,1,2.916,3.945c.219,3.487.131,6.979.08,10.466-.049,3.339,1.123,5.893,4.214,7.364.675.321.451.834.452,1.283q.022,15.763.011,31.525c0,1.59-.013,3.18,0,4.769.019,1.747.86,2.755,2.281,2.777,1.483.023,2.366-.989,2.367-2.806q.013-18.031-.01-36.062a1.665,1.665,0,0,1,1.008-1.783,6.4,6.4,0,0,0,3.618-5.819c.072-5.039.034-10.081.042-15.122,0-1.482,0-1.467,1.417-1.338a8.2,8.2,0,0,0,2.662-.1c.588-.14.9,0,.808.667a4.353,4.353,0,0,0,0,.581q0,35.014.02,70.03c0,.953-.129,1.35-1.22,1.284-1.855-.111-3.721-.041-5.582-.027a2.334,2.334,0,1,0,0,4.629c2.053.015,4.106,0,6.264,0A6.72,6.72,0,0,1,167.006,188.551Z" transform="translate(-98.853 -74.025)"/>
  <path id="패스_449" data-name="패스 449" class="cls-1" d="M136.554,142.315a8.331,8.331,0,0,0-.091-1.5,2.276,2.276,0,0,0-4.468,0,8.253,8.253,0,0,0-.091,1.5q-.006,21.211,0,42.423a8.964,8.964,0,0,0,.068,1.39,2.222,2.222,0,0,0,2.371,1.919c1.41-.058,2.209-1.054,2.212-2.839q.014-10.81,0-21.618Q136.559,152.949,136.554,142.315Z" transform="translate(-108.163 -92.321)"/>
  <path id="패스_450" data-name="패스 450" class="cls-1" d="M162.469,142.3a8.26,8.26,0,0,0-.094-1.5,2.278,2.278,0,0,0-4.469.019,7.639,7.639,0,0,0-.088,1.388q-.006,21.327,0,42.655a7.917,7.917,0,0,0,.069,1.274,2.223,2.223,0,0,0,2.382,1.906c1.407-.064,2.2-1.06,2.2-2.85q.013-10.867,0-21.735Q162.472,152.88,162.469,142.3Z" transform="translate(-115.463 -92.321)"/>
</svg>
