<svg id="그룹_185" data-name="그룹 185" xmlns="http://www.w3.org/2000/svg" width="74.647" height="113.782" viewBox="0 0 74.647 113.782">
  <defs>
    <style>
      .cls-1 {
        fill: #757575;
      }
    </style>
  </defs>
  <g id="그룹_179" data-name="그룹 179" transform="translate(10.871)">
    <path id="패스_451" data-name="패스 451" class="cls-1" d="M330.953,154.568A26.483,26.483,0,0,1,304.5,128.116V96.953a26.453,26.453,0,1,1,52.905,0v31.163A26.483,26.483,0,0,1,330.953,154.568Zm0-79a21.4,21.4,0,0,0-21.379,21.379v31.163a21.379,21.379,0,1,0,42.759,0V96.953A21.4,21.4,0,0,0,330.953,75.573Z" transform="translate(-304.5 -70.5)"/>
  </g>
  <g id="그룹_180" data-name="그룹 180" transform="translate(0 53.992)">
    <path id="패스_452" data-name="패스 452" class="cls-1" d="M326.823,184.86A37.366,37.366,0,0,1,289.5,147.537a2.537,2.537,0,1,1,5.073,0,32.25,32.25,0,1,0,64.5,0,2.537,2.537,0,0,1,5.073,0A37.366,37.366,0,0,1,326.823,184.86Z" transform="translate(-289.5 -145)"/>
  </g>
  <g id="그룹_181" data-name="그룹 181" transform="translate(34.787 89.141)">
    <path id="패스_453" data-name="패스 453" class="cls-1" d="M340.037,218.141A2.536,2.536,0,0,1,337.5,215.6V196.037a2.537,2.537,0,0,1,5.073,0V215.6A2.536,2.536,0,0,1,340.037,218.141Z" transform="translate(-337.5 -193.5)"/>
  </g>
  <g id="그룹_182" data-name="그룹 182" transform="translate(17.393 108.709)">
    <path id="패스_454" data-name="패스 454" class="cls-1" d="M350.823,225.573H316.037a2.537,2.537,0,1,1,0-5.073h34.787a2.537,2.537,0,1,1,0,5.073Z" transform="translate(-313.5 -220.5)"/>
  </g>
</svg>
