<svg xmlns="http://www.w3.org/2000/svg" width="15.219" height="15.176" viewBox="0 0 15.219 15.176">
  <defs>
    <style>
      .cls-1 {
        opacity: 0.5;
      }

      .cls-2 {
        fill: #fff;
      }
    </style>
  </defs>
  <g id="그룹_190" data-name="그룹 190" class="cls-1">
    <path id="패스_495" data-name="패스 495" class="cls-2" d="M-518.515-150.875a3.031,3.031,0,0,0-3.133-3.142q-4.475,0-8.949,0a3.025,3.025,0,0,0-.468.023,3.029,3.029,0,0,0-2.664,3.1q-.007,4.464,0,8.928a3.032,3.032,0,0,0,3.136,3.121q4.475,0,8.949,0a3.03,3.03,0,0,0,3.129-3.125q0-2.211,0-4.421Q-518.515-148.632-518.515-150.875Zm-1.256,5.746a1.936,1.936,0,0,1-.394.628,2.06,2.06,0,0,1-1.483.65c-.954,0-1.907.007-2.861,0a.353.353,0,0,0-.35.2c-.291.489-.592.972-.893,1.455-.23.37-.5.372-.733,0-.313-.5-.624-1-.927-1.509a.273.273,0,0,0-.271-.151c-.939.006-1.879,0-2.818,0a2.055,2.055,0,0,1-2.132-2.123q0-2.37,0-4.74a2.047,2.047,0,0,1,1.748-2.119.3.3,0,0,0,.058-.025h9.418a2.438,2.438,0,0,1,.974.406,2.186,2.186,0,0,1,.826,1.4l.01.156q0,1.724-.007,3.448c0,.421,0,.841.005,1.262A2.861,2.861,0,0,1-519.771-145.129Z" transform="translate(533.733 154.018)"/>
    <path id="패스_496" data-name="패스 496" class="cls-2" d="M-293.952-42.568c0-.036,0-.08-.04-.1a.155.155,0,0,0-.054-.007c-.121,0-.241-.009-.362-.008s-.382-.02-.316.16c-.078.01-.166-.069-.226-.111a.654.654,0,0,0-.252-.1,1.178,1.178,0,0,0-.946.232,1.034,1.034,0,0,0-.356.761,1.183,1.183,0,0,0,.5,1.231,1.074,1.074,0,0,0,1.278-.118,3.029,3.029,0,0,1-.022.347.43.43,0,0,1-.383.374c-.3.048-.3.047-.3.358,0,.085,0,.17,0,.256,0,.055.011.1.077.1a1.489,1.489,0,0,0,.875-.187,1.074,1.074,0,0,0,.5-.852C-293.9-41-293.968-41.787-293.952-42.568Zm-.75,1.079a.509.509,0,0,1-.443.471.516.516,0,0,1-.547-.348c-.014-.04-.026-.08-.04-.12h0l0-.106c.018-.046.034-.092.054-.137a.516.516,0,0,1,.578-.294A.508.508,0,0,1-294.7-41.489Z" transform="translate(306.663 47.502)"/>
    <path id="패스_497" data-name="패스 497" class="cls-2" d="M-474.72-64.13c0-.357,0-.7,0-1.049,0-.125-.027-.183-.164-.173a2.553,2.553,0,0,1-.448,0c-.168-.017-.2.052-.2.205.007.833,0,1.666.005,2.5,0,.2-.089.455.04.574s.382.015.578.038c.157.018.218-.043.193-.208a1.1,1.1,0,0,0,1.458-.051,1.345,1.345,0,0,0,.05-1.711A1.06,1.06,0,0,0-474.72-64.13Zm.42,1.469a.5.5,0,0,1-.424-.508.5.5,0,0,1,.411-.5.532.532,0,0,1,.616.51A.552.552,0,0,1-474.3-62.661Z" transform="translate(478.036 69.143)"/>
    <path id="패스_498" data-name="패스 498" class="cls-2" d="M-366.386-42.87a1.584,1.584,0,0,0-1.359.122,1.234,1.234,0,0,0-.411,1.6,1.1,1.1,0,0,0,.708.568,1.713,1.713,0,0,0,1.109-.076,1.089,1.089,0,0,0,.713-1.1A1.149,1.149,0,0,0-366.386-42.87Zm-.578,1.646a.509.509,0,0,1-.516-.512.5.5,0,0,1,.518-.508.5.5,0,0,1,.494.51A.507.507,0,0,1-366.964-41.224Z" transform="translate(375.358 47.714)"/>
    <path id="패스_499" data-name="패스 499" class="cls-2" d="M-406.963-64.277c-.014-.589.04-1.181-.022-1.768a1.179,1.179,0,0,0-.364-.76,1.015,1.015,0,0,0-.372-.211c-.07-.022-.143-.036-.215-.052-.036-.008-.1-.028-.13,0-.055.038-.035.161-.036.216,0,.135,0,.27,0,.4,0,.046-.023.11.034.134.345.146.319.453.322.743,0,.561.008,1.123,0,1.684,0,.163.048.213.205.2.183-.016.427.056.536-.037s.05-.322.045-.457Q-406.962-64.231-406.963-64.277Z" transform="translate(413.472 70.798)"/>
  </g>
</svg>
