<svg xmlns="http://www.w3.org/2000/svg" width="62.293" height="62.093" viewBox="0 0 62.293 62.093">
  <defs>
    <style>
      .cls-1 {
        fill: #000;
      }
    </style>
  </defs>
  <g id="그룹_226" data-name="그룹 226" transform="translate(-487.835 -489.22)">
    <path id="패스_541" data-name="패스 541" class="cls-1" d="M666.9,529.565a.614.614,0,1,1-1.109-.523.613.613,0,1,1,1.109.523Z" transform="translate(-137.395 -30.47)"/>
    <path id="패스_542" data-name="패스 542" class="cls-1" d="M682.929,518.067l-2.356,7.267a1.011,1.011,0,0,0,.352,1.335l-.176.216-2.2-1.786.176-.217c.571.464.887.606,1.1.338a1.1,1.1,0,0,0,.159-.3l.619-1.911L678,520.89l-1.487.875a1.852,1.852,0,0,0-.41.328c-.253.312-.073.6.5,1.066l-.176.216-1.887-1.533.176-.216c.476.387.74.415,1.649-.155l5.922-3.593Zm-.79.335L678.3,520.71l2.423,1.969Z" transform="translate(-144.216 -22.137)"/>
    <path id="패스_543" data-name="패스 543" class="cls-1" d="M702.219,544.086l.236-.149c.453.716.783.758,1.17.513l5.116-3.24c.443-.281.471-.549.017-1.265l.236-.149,1.563,2.469-.236.149c-.513-.81-.762-.89-1.2-.61L704,545.043c-.386.245-.5.551-.161,1.079l.615.97a3.083,3.083,0,0,0,2.9,1.266l.019.239-2.075.35Z" transform="translate(-165.592 -39.066)"/>
    <path id="패스_544" data-name="패스 544" class="cls-1" d="M721.066,581.585l.271-.066c.163.672.351,1.212.893,1.08l6.026-1.46c.455-.11.576-.369.408-1.063a2.748,2.748,0,0,0-2.195-2.05l.05-.173,1.941.2,1.557,6.427-1.709,1.091-.121-.166c.741-.73,1.451-1.3,1.126-2.648-.181-.748-.439-1.053-.894-.942l-6.026,1.46c-.542.131-.491.578-.3,1.369l-.271.066Z" transform="translate(-180.15 -68.462)"/>
    <path id="패스_545" data-name="패스 545" class="cls-1" d="M724.46,624.032l.277.031c-.078.687-.087,1.259.467,1.322l6.161.7c.465.053.668-.148.749-.858a2.748,2.748,0,0,0-1.356-2.68l.106-.145,1.755.851-.747,6.571-1.981.437-.056-.2c.947-.431,1.811-.726,1.967-2.1.087-.765-.05-1.139-.516-1.192l-6.161-.7c-.554-.063-.66.374-.752,1.183l-.277-.032Z" transform="translate(-182.491 -102.872)"/>
    <path id="패스_546" data-name="패스 546" class="cls-1" d="M715.934,662.2l-7.6-.76a1.012,1.012,0,0,0-1.23.627l-.249-.126,1.279-2.527.249.126c-.333.656-.4,1-.1,1.151a1.106,1.106,0,0,0,.329.091l2,.2,1.516-2.995-1.17-1.267a1.864,1.864,0,0,0-.407-.331c-.358-.181-.6.057-.936.713l-.249-.126,1.1-2.169.249.126c-.277.547-.249.812.5,1.578l4.768,5.025Zm-.5-.7-3.071-3.267-1.41,2.786Z" transform="translate(-169.172 -127.902)"/>
    <path id="패스_547" data-name="패스 547" class="cls-1" d="M698.7,686.812l.2.2c-.588.579-.559.942-.176,1.331l4.162,4.227c.375.381.66.336,1.248-.243l.2.2-2.956,2.91a2.047,2.047,0,0,1-3.021.158,2.146,2.146,0,0,1,.112-3.24l1.637-1.612-1.878-1.907c-.383-.389-.754-.416-1.405.226l-.2-.2Zm1.593,4.128-1.5,1.479a1.84,1.84,0,0,0,.106,2.635,1.67,1.67,0,0,0,2.468,0l.945-.931c.389-.383.447-.675.071-1.056Z" transform="translate(-161.265 -152.622)"/>
    <path id="패스_548" data-name="패스 548" class="cls-1" d="M677.02,710.335a.614.614,0,1,1,1.036-.657.613.613,0,1,1-1.036.657Z" transform="translate(-146.036 -170.033)"/>
    <path id="패스_549" data-name="패스 549" class="cls-1" d="M639.406,723.449a3.682,3.682,0,0,0-3.416-1.3c-1.1.224-1.854.844-1.6,2.111.218,1.071.945,1.287,2.739,1.435,1.287.114,2.709.394,3,1.814.187.918-.175,2.107-1.934,2.465a8.385,8.385,0,0,1-1.6.018.242.242,0,0,0-.127.048l-.5.305-1.11-1.823.142-.142a3.34,3.34,0,0,0,3.18,1.31,1.522,1.522,0,0,0,1.394-1.877c-.236-1.158-1.4-1.378-2.618-1.459-1.558-.1-2.862-.363-3.146-1.761-.313-1.541.69-2.428,2.089-2.712a9.495,9.495,0,0,1,1.787,0,1.593,1.593,0,0,0,.731-.49l1.187,1.921Z" transform="translate(-112.71 -179.335)"/>
    <path id="패스_550" data-name="패스 550" class="cls-1" d="M605.62,726.039l-.026.277c-.822-.078-1.081.178-1.133.721l-.56,5.906c-.051.533.167.722.988.8l-.026.278-4.13-.391a2.047,2.047,0,0,1-2.064-2.212,2.146,2.146,0,0,1,2.553-2l2.287.217.253-2.665c.052-.544-.166-.845-1.077-.931l.026-.277Zm-2.137,3.875-2.1-.2a1.84,1.84,0,0,0-1.95,1.776,1.67,1.67,0,0,0,1.591,1.887l1.321.125c.544.051.8-.092.854-.625Z" transform="translate(-85.601 -182.708)"/>
    <path id="패스_551" data-name="패스 551" class="cls-1" d="M566.948,719.185l.4-7.628a1.011,1.011,0,0,0-.685-1.2l.114-.254,2.584,1.158-.114.254c-.672-.3-1.013-.356-1.155-.041a1.105,1.105,0,0,0-.076.333l-.1,2.006,3.063,1.373,1.211-1.229a1.844,1.844,0,0,0,.311-.422c.164-.366-.085-.6-.757-.9l.114-.254,2.218.994-.114.254c-.56-.251-.823-.21-1.553.575l-4.794,5Zm.676-.528,3.118-3.222-2.849-1.277Z" transform="translate(-60.888 -170.613)"/>
    <path id="패스_552" data-name="패스 552" class="cls-1" d="M526.351,693.925a3.282,3.282,0,0,1,3.895.452c1.412,1.331,1.532,3.512-.341,5.5-1.545,1.639-3.778,2.14-5.271.733a4.2,4.2,0,0,1-.938-1.3l-.752-.356.839-2.013.191.057a3.741,3.741,0,0,0,.835,3.391c1.144,1.078,3.03.572,4.544-1.035,1.453-1.542,1.623-3.527.324-4.75a2.9,2.9,0,0,0-3.241-.48Z" transform="translate(-27.118 -157.783)"/>
    <path id="패스_553" data-name="패스 553" class="cls-1" d="M509.692,668.734l-.245.134c-.363-.665-.713-.817-1.183-.561l-5.245,2.865c-.45.246-.482.606-.119,1.272l-.245.134-2.806-5.138,1.29-1.594.178.094c-.33.815-1.036,1.709-.207,3.226l.524.959c.278.509.6.677,1.048.431l2.359-1.288-.812-1.488c-.374-.685-.871-.9-1.8-.389l-.128-.235,2.74-1.5.128.235c-.871.476-1.05,1.056-.676,1.741l.812,1.488,2.623-1.432c.47-.257.531-.633.248-1.152l-.5-.92a3.382,3.382,0,0,0-2.983-1.763l-.018-.219,2.086-.275Z" transform="translate(-9.28 -134.508)"/>
    <path id="패스_554" data-name="패스 554" class="cls-1" d="M495.982,617.432l-.279,0c-.013-.792-.229-1.056-.787-1.047l-5.921.1c-.558.009-.765.28-.752,1.072l-.279,0-.024-1.505,6.631-5.194-5.821.094c-.435.007-.609.3-.594,1.17l-.279,0-.041-2.553.279,0c.012.736.207,1.068.631,1.061l7.181-.116,0,.178-7.028,5.456,6.01-.1c.558-.009.766-.258.751-1.172l.279,0Z" transform="translate(0 -92.962)"/>
    <path id="패스_555" data-name="패스 555" class="cls-1" d="M498.9,571.3c1.985.675,3.585,2.445,2.81,4.725-.743,2.185-3.087,2.6-5.072,1.926s-3.61-2.441-2.867-4.626C494.549,571.046,496.907,570.623,498.9,571.3Zm-2.022,5.944c1.847.628,3.986.4,4.568-1.309.61-1.795-.946-3.278-2.794-3.907s-4-.405-4.607,1.389C493.466,575.13,495.033,576.617,496.881,577.245Z" transform="translate(-4.444 -63.173)"/>
    <path id="패스_556" data-name="패스 556" class="cls-1" d="M513.1,533.737l-.213-.18c.532-.631.512-.954.094-1.306l-4.646-3.918c-.341-.287-.634-.2-1.152.415l-.213-.18,1.294-1.534,7.035,2.5-3.663-6.5,1.337-1.586.213.18c-.575.682-.554.934-.221,1.214l4.647,3.918c.375.317.739.317,1.278-.322l.213.18-1.819,2.157-.213-.18c.525-.623.47-.99.095-1.306l-5.039-4.248-.079.094,4.038,7.183-.115.136-7.621-2.692-.086.1,4.919,4.148c.418.352.747.309,1.279-.323l.213.18Z" transform="translate(-14.783 -24.895)"/>
    <path id="패스_557" data-name="패스 557" class="cls-1" d="M558.916,503.55l5.788,4.989a1.011,1.011,0,0,0,1.367.193l.131.246-2.5,1.335-.131-.246c.649-.347.9-.583.74-.888a1.11,1.11,0,0,0-.217-.264l-1.522-1.311-2.961,1.582.231,1.71a1.861,1.861,0,0,0,.143.505c.189.354.527.3,1.176-.047l.132.246-2.145,1.145-.131-.246c.541-.289.67-.522.5-1.58l-1.018-6.854Zm0,.858.638,4.439,2.755-1.471Z" transform="translate(-54.579 -11.069)"/>
    <path id="패스_558" data-name="패스 558" class="cls-1" d="M589.461,498.433l-.042-.287c.772-.113,1.018-.363.931-.958l-.85-5.838c-.074-.508-.382-.688-1.155-.576l-.04-.276,3.421-.5a4.012,4.012,0,0,1,1.156,7.935Zm1.584-1.347c.087.6.393.766,1,.677l.794-.116c2.042-.3,2.8-2.279,2.531-4.133s-1.564-3.537-3.605-3.239l-.795.116c-.607.089-.851.35-.777.857Z" transform="translate(-77.604 -0.561)"/>
    <path id="패스_559" data-name="패스 559" class="cls-1" d="M630.23,494.924a3.682,3.682,0,0,0,2.716,2.444c1.11.19,2.034-.116,2.252-1.391.184-1.077-.415-1.541-2.034-2.327-1.158-.571-2.383-1.346-2.139-2.775.158-.923.924-1.9,2.694-1.6a8.374,8.374,0,0,1,1.5.562.241.241,0,0,0,.136,0l.573-.106.376,2.1-.184.082a3.339,3.339,0,0,0-2.49-2.371,1.521,1.521,0,0,0-1.978,1.246c-.2,1.165.8,1.789,1.913,2.307,1.414.66,2.537,1.373,2.3,2.78-.265,1.55-1.521,2.014-2.927,1.773a9.462,9.462,0,0,1-1.666-.647,1.59,1.59,0,0,0-.859.193l-.412-2.22Z" transform="translate(-109.806 0)"/>
  </g>
</svg>
