<svg id="그룹_233" data-name="그룹 233" xmlns="http://www.w3.org/2000/svg" width="103.719" height="85.101" viewBox="0 0 103.719 85.101">
  <defs>
    <style>
      .cls-1 {
        fill: #fff;
      }
    </style>
  </defs>
  <path id="패스_420" data-name="패스 420" class="cls-1" d="M310.13-308.582c-6.684,0-13.369-.013-20.054.02a1.215,1.215,0,0,1-1.287-.807c-1.882-3.836-3.835-7.639-5.7-11.481a6.453,6.453,0,0,0-6.352-3.953q-11.09.066-22.181,0a6.405,6.405,0,0,0-6.278,3.9c-1.729,3.536-3.594,7.009-5.231,10.586a2.506,2.506,0,0,1-2.847,1.766c-2.03-.146-2.037-.037-2.082-2.11a6.077,6.077,0,0,0-6.087-6.025c-1.181-.018-2.363-.006-3.544,0-4.047.007-6.565,2.521-6.572,6.559,0,1.542,0,1.542-1.5,1.544-4.1.006-6.606,2.512-6.606,6.625q0,27.8,0,55.6a8.547,8.547,0,0,0,.1,1.611,6.079,6.079,0,0,0,6.383,5.033q43.8,0,87.61,0c1.181,0,2.363.013,3.544,0a6.077,6.077,0,0,0,5.766-4.151c.086-.236.007-.562.312-.706v-58.949C316.039-307.513,314.477-308.582,310.13-308.582Zm-84.174-.607c.042-.468-.008-.944.015-1.415a1.989,1.989,0,0,1,1.975-2.015c1.381-.042,2.766-.044,4.145,0a2.008,2.008,0,0,1,1.975,2.123c.075,1.913.075,1.913-1.829,1.913h-2.124c-1.18,0-2.361-.022-3.54.011C226.089-308.557,225.914-308.7,225.956-309.189Zm39.768,4.659h44.95c2.214,0,2.8.6,2.8,2.832,0,2.835-.019,5.67.015,8.5.008.647-.145.837-.819.834q-13.667-.036-27.335,0a1.6,1.6,0,0,1-1.22-.542,26.236,26.236,0,0,0-36.9.013,1.722,1.722,0,0,1-1.329.525q-13.567-.021-27.133.011c-.786,0-.927-.22-.917-.948.044-2.868.017-5.737.019-8.605,0-1.956.661-2.622,2.606-2.622ZM248.386-312c1.217-2.436,2.453-4.862,3.643-7.311a2.317,2.317,0,0,1,2.318-1.43q11.335.029,22.667,0a2.112,2.112,0,0,1,2.112,1.1c1.835,3.625,3.647,7.263,5.535,11.032H246.69C247.281-309.8,247.833-310.9,248.386-312Zm65.092,51.127c0,.488.154.942-.708.938-8.234-.041-16.469-.024-24.824-.024,5.428-9.485,5.431-18.877,0-28.361h.834c7.93,0,15.862.013,23.792-.02.771,0,.926.2.924.941C313.467-278.562,313.477-269.72,313.478-260.878Zm-47.862,9.017a22.31,22.31,0,0,1-22.227-22.313,22.3,22.3,0,0,1,22.283-22.253,22.3,22.3,0,0,1,22.28,22.36A22.306,22.306,0,0,1,265.615-251.86Zm-47.768-35.488c0-.733.1-1.018.952-1.014,7.933.039,15.864.023,23.8.023h.786c-5.4,9.44-5.434,18.834.011,28.377H240c-7.055,0-14.11-.013-21.164.018-.772,0-1-.165-.993-.973Q217.891-274.133,217.847-287.348Zm.015,40.892c0-2.869.013-5.74-.012-8.609,0-.6.059-.868.788-.866q13.674.043,27.347.006a1.605,1.605,0,0,1,1.227.524,26.222,26.222,0,0,0,36.91,0,1.727,1.727,0,0,1,1.33-.523q13.572.02,27.144-.006c.682,0,.912.122.9.861-.048,2.936-.015,5.874-.021,8.811,0,1.8-.713,2.5-2.531,2.5q-22.637,0-45.274,0H220.6C218.5-243.758,217.864-244.387,217.863-246.456Z" transform="translate(-213.81 324.802)"/>
  <path id="패스_421" data-name="패스 421" class="cls-1" d="M289.367-300.325c.638.027,1.279,0,1.919,0,.706,0,1.414.026,2.12-.007a2.018,2.018,0,0,0,2-1.987,2.011,2.011,0,0,0-2.047-2.044c-1.346-.034-2.694-.037-4.04,0a2,2,0,0,0-2,1.982A2.026,2.026,0,0,0,289.367-300.325Z" transform="translate(-199.803 328.693)"/>
  <path id="패스_422" data-name="패스 422" class="cls-1" d="M282.538-300.326a2.043,2.043,0,0,0,2.018-2.075,2.04,2.04,0,0,0-2.024-1.966,2.035,2.035,0,0,0-2.017,1.972A2.04,2.04,0,0,0,282.538-300.326Z" transform="translate(-201.1 328.696)"/>
  <path id="패스_423" data-name="패스 423" class="cls-1" d="M260.319-297.565a18.259,18.259,0,0,0-18.262,18.172A18.264,18.264,0,0,0,260.2-261.1a18.262,18.262,0,0,0,18.313-18.227A18.256,18.256,0,0,0,260.319-297.565Zm-.043,32.412A14.21,14.21,0,0,1,246.108-279.4,14.2,14.2,0,0,1,260.3-293.513a14.2,14.2,0,0,1,14.169,14.24A14.21,14.21,0,0,1,260.276-265.153Z" transform="translate(-208.428 329.992)"/>
  <path id="패스_424" data-name="패스 424" class="cls-1" d="M264.457-317.98q-5.815-.014-11.628,0a2.038,2.038,0,0,0-2.261,2.044,2.062,2.062,0,0,0,2.3,2c1.955.011,3.91,0,5.865,0,1.888,0,3.775.007,5.662,0,1.449-.006,2.375-.819,2.362-2.046A2.059,2.059,0,0,0,264.457-317.98Z" transform="translate(-206.806 326.101)"/>
  <path id="패스_425" data-name="패스 425" class="cls-1" d="M258.66-290.752a10.179,10.179,0,0,0-9.787,9.671c-.042,1.456.7,2.413,1.925,2.468s2.035-.83,2.121-2.293a6.083,6.083,0,0,1,5.879-5.8,2.067,2.067,0,0,0,2.211-2.1A2.07,2.07,0,0,0,258.66-290.752Z" transform="translate(-207.13 331.29)"/>
</svg>
