<svg id="그룹_222" data-name="그룹 222" xmlns="http://www.w3.org/2000/svg" width="103.932" height="103.764" viewBox="0 0 103.932 103.764">
  <defs>
    <style>
      .cls-1 {
        fill: #fff;
      }
    </style>
  </defs>
  <path id="패스_431" data-name="패스 431" class="cls-1" d="M191.172-297.1c-2.438-2.081-4.846-4.2-7.318-6.237a2.824,2.824,0,0,1-1.113-2.43c.031-6.583.023-13.165.013-19.747,0-2.451-1.313-3.78-3.735-3.789q-5.672-.023-11.342,0a3.4,3.4,0,0,0-3.7,3.646c-.038,1.417,0,2.835-.017,4.253,0,.242.13.543-.165.719a1.24,1.24,0,0,1-.521-.328c-4.6-3.912-9.271-7.75-13.771-11.774a10.194,10.194,0,0,0-13.051-.009c-6.694,5.875-13.553,11.565-20.352,17.32-7.264,6.148-14.506,12.322-21.783,18.452a8.951,8.951,0,0,0-3.607,6.608q-.02.439,0,.893a13.439,13.439,0,0,0,.536,3.065c1.269,4.44,5.863,6.9,10.478,6.134.969-.162,1.038-.106,1.066.885.008.3,0,.607,0,.911q0,21.419,0,42.836a11.312,11.312,0,0,0,.058,1.618c.165,1.149,1.171,2.573,2.439,2.6l.007.084h74.952c-.012-.023-.038-.048-.035-.068a.154.154,0,0,1,.011-.04,2.411,2.411,0,0,0,2.1-1.382,4.491,4.491,0,0,0,.467-2.448q0-21.462,0-42.923c0-.337-.006-.675,0-1.012.027-1.1.107-1.187,1.172-1a8.2,8.2,0,0,0,2.818.049c4.376-.73,6.975-3.344,7.853-7.9v-2.634A8.621,8.621,0,0,0,191.172-297.1ZM171-322.973c1.585.026,3.17.028,4.754,0,.511-.01.689.11.686.66-.024,4.148-.013,8.3-.017,12.442a2.464,2.464,0,0,1-.1.4c-1.925-1.638-3.738-3.2-5.575-4.73a1.088,1.088,0,0,1-.433-.939c.017-2.394.027-4.788-.006-7.182C170.3-322.882,170.5-322.983,171-322.973Zm5.447,84.593c0,.785-.221.926-.952.92q-6.684-.052-13.369,0c-.757.007-.938-.176-.936-.934.03-8.609.019-17.218.018-25.827,0-2.513-1.127-3.644-3.632-3.644q-14.838,0-29.676,0c-2.364,0-3.531,1.168-3.532,3.542,0,8.61-.014,17.219.021,25.828,0,.848-.206,1.047-1.045,1.038q-6.583-.071-13.166,0c-.823.008-1.056-.163-1.051-1.026.038-7.665.023-15.328.023-22.992,0-7.562.018-15.126-.025-22.689a2.264,2.264,0,0,1,.926-1.94q16.155-13.665,32.27-27.378c.536-.456.829-.4,1.33.029Q159.7-299.666,175.8-285.923a1.6,1.6,0,0,1,.645,1.357Q176.417-261.473,176.448-238.38Zm-21.275.141c0,.626-.159.779-.782.777q-11.594-.034-23.188,0c-.72,0-.8-.259-.794-.864q.025-11.34,0-22.68c0-.664.173-.834.831-.829,3.881.032,7.762.016,11.645.016,3.813,0,7.628.013,11.441-.013.621,0,.858.1.856.807Q155.133-249.631,155.172-238.239Zm31.676-48.6a2.822,2.822,0,0,1-3.223-.351c-2-1.657-3.96-3.366-5.931-5.057q-16.024-13.738-32.046-27.479c-2.066-1.77-3.236-1.785-5.31-.025q-18.953,16.074-37.881,32.177c-2.326,1.989-4.9.715-5.347-1.195A3.053,3.053,0,0,1,98.236-292q11.311-9.592,22.619-19.185,9.8-8.315,19.607-16.632c1.863-1.582,3.168-1.6,4.993-.035q20.8,17.814,41.6,35.617a3.578,3.578,0,0,1,1.5,2.817A2.944,2.944,0,0,1,186.848-286.836Z" transform="translate(-90.703 335.156)"/>
  <path id="패스_432" data-name="패스 432" class="cls-1" d="M145.431-304.494c-3-.009-6.008,0-9.012,0-3.038,0-6.075-.008-9.114,0a2.987,2.987,0,0,0-3.206,3.146q-.045,9.013,0,18.025a3,3,0,0,0,3.23,3.131q9.063.016,18.126,0a3.075,3.075,0,0,0,3.315-3.36q.011-8.809,0-17.62A3.054,3.054,0,0,0,145.431-304.494Zm-2.7,17.549c0,.5-.1.7-.656.694q-5.663-.038-11.326,0c-.482,0-.626-.131-.624-.619.019-3.64.026-7.28-.006-10.921,0-.6.242-.637.71-.632,1.887.018,3.774.007,5.662.007,1.854,0,3.707.018,5.561-.012.518-.007.685.124.681.666Q142.7-292.356,142.732-286.945Z" transform="translate(-84.344 340.997)"/>
  <path id="패스_433" data-name="패스 433" class="cls-1" d="M137.554-268.421a3.054,3.054,0,0,0-2.941,3.1,3.082,3.082,0,0,0,3.081,2.97,3.079,3.079,0,0,0,2.991-3.06A3.051,3.051,0,0,0,137.554-268.421Z" transform="translate(-82.336 347.872)"/>
</svg>
