<svg id="그룹_223" data-name="그룹 223" xmlns="http://www.w3.org/2000/svg" width="103.718" height="103.835" viewBox="0 0 103.718 103.835">
  <defs>
    <style>
      .cls-1 {
        fill: #fff;
      }
    </style>
  </defs>
  <path id="패스_434" data-name="패스 434" class="cls-1" d="M449.88-302.684a26,26,0,0,0-11.171-16.057,24.686,24.686,0,0,0-16.562-4.128,4.1,4.1,0,0,1-3.787-1.369,27.2,27.2,0,0,0-11-6.805,26.865,26.865,0,0,0-6.321-1.173h-5.874c-1.109.281-2.262.23-3.376.508A28.121,28.121,0,0,0,377.8-323.6a2.429,2.429,0,0,1-2.424.8,21.625,21.625,0,0,0-5.655-.086,25.117,25.117,0,0,0-11.694,4.207,26.236,26.236,0,0,0-9.443,11.113,23.474,23.474,0,0,0-2.034,7.765v5.876c.267,1.078.169,2.2.45,3.286a25.978,25.978,0,0,0,12.2,16.351,2.2,2.2,0,0,1,1.249,2.179c-.06,2.7-.02,5.4-.019,8.1,0,8.677.022,17.352-.008,26.029-.017,4.645,3.882,9.615,9.376,9.6,19.074-.047,38.147-.018,57.221-.019a8.359,8.359,0,0,0,5.045-1.518,9.709,9.709,0,0,0,4.318-8.267c.013-11.174.029-22.348-.026-33.523a2.833,2.833,0,0,1,1.6-2.8,25.416,25.416,0,0,0,10.166-11.371,23.221,23.221,0,0,0,2.145-8.048v-5.47C450.031-300.481,450.14-301.6,449.88-302.684ZM406.768-325.9c8.519,3.261,13.462,9.677,14.968,18.7a26.937,26.937,0,0,1,.222,3.025c.089,1.658,1.043,2.626,2.5,2.566a2.375,2.375,0,0,0,2.237-2.711,27.978,27.978,0,0,0-3.121-12.433c-.169-.329-.334-.661-.493-.994-.025-.053,0-.127,0-.263a19.746,19.746,0,0,1,11.7,2.707c7.059,4.2,10.852,10.492,10.714,18.706-.144,8.5-4.255,14.816-11.85,18.707a3.6,3.6,0,0,0-2.264,3.7c.087,7.054.019,14.112.056,21.167,0,.826-.245.981-1.013.981q-32.005-.03-64.01,0c-.9,0-1.018-.3-1.015-1.092.039-7.123,0-14.247.073-21.37a3.112,3.112,0,0,0-2.018-3.229A21.079,21.079,0,0,1,351.3-298.07,21.206,21.206,0,0,1,366.826-317.3a19.92,19.92,0,0,1,6.905-.7c.05.471-.264.773-.443,1.119a28.29,28.29,0,0,0-3.173,12.627,2.424,2.424,0,0,0,1.8,2.6,2.375,2.375,0,0,0,2.693-1.306,4.106,4.106,0,0,0,.262-1.586,22.527,22.527,0,0,1,8.236-17.253C390.14-327.68,398.191-329.18,406.768-325.9ZM365.4-238.5c-.005-2.632.044-5.266-.018-7.9-.02-.85.281-.963,1.021-.961q16,.032,32,.014c10.666,0,21.332.011,32-.021.85,0,1.054.21,1.035,1.045-.06,2.631-.014,5.265-.024,7.9a4.94,4.94,0,0,1-5.2,5.223q-27.794.016-55.59,0A4.944,4.944,0,0,1,365.4-238.5Z" transform="translate(-346.547 332.216)"/>
  <path id="패스_435" data-name="패스 435" class="cls-1" d="M376.734-278.736c-2.585-3.692-5.278-7.321-5.778-12.033a2.178,2.178,0,0,0-2.614-1.8,2.414,2.414,0,0,0-2,2.6c.013.128.027.329.056.529.876,5.9,4.209,10.54,7.793,15.028a2.181,2.181,0,0,0,3.034.15,2.354,2.354,0,0,0,.536-3.091C377.46-277.844,377.062-278.267,376.734-278.736Z" transform="translate(-342.775 339.765)"/>
  <path id="패스_436" data-name="패스 436" class="cls-1" d="M404.874-274.267c1.114.874,2.493.627,3.517-.675a47.343,47.343,0,0,0,5.071-7.76,18.6,18.6,0,0,0,2.286-7.255,2.376,2.376,0,0,0-2.1-2.625,2.268,2.268,0,0,0-2.594,2.214,13.991,13.991,0,0,1-1.664,5.246,44.187,44.187,0,0,1-4.706,7.274A2.418,2.418,0,0,0,404.874-274.267Z" transform="translate(-335.601 339.766)"/>
  <path id="패스_437" data-name="패스 437" class="cls-1" d="M388.129-276.239a2.373,2.373,0,0,0,2.383,2.481,2.353,2.353,0,0,0,2.33-2.431q.056-7.026,0-14.052a2.272,2.272,0,0,0-2.074-2.341,2.356,2.356,0,0,0-2.643,2.595c-.028,2.258-.007,4.516-.006,6.774C388.117-280.888,388.085-278.563,388.129-276.239Z" transform="translate(-338.628 339.766)"/>
</svg>
