<svg xmlns="http://www.w3.org/2000/svg" width="14.889" height="11.81" viewBox="0 0 14.889 11.81">
  <defs>
    <style>
      .cls-1 {
        fill: #8e7958;
      }
    </style>
  </defs>
  <g id="그룹_204" data-name="그룹 204" transform="translate(-174.922 -180.35)">
    <path id="패스_508" data-name="패스 508" class="cls-1" d="M268.749,186.32a5.612,5.612,0,0,1,.556-2,5.769,5.769,0,0,1,1.522-1.94,5.864,5.864,0,0,1,2.055-1.114,6.753,6.753,0,0,1,1.66-.262.3.3,0,0,0,.336-.27v-.145a.4.4,0,0,0-.422-.234,7.577,7.577,0,0,0-.824.069,6.525,6.525,0,0,0-5.561,6.053c-.045.677-.013,1.356-.019,2.034a4.83,4.83,0,0,0,.047.738,3.409,3.409,0,0,0,6.677.3,2.209,2.209,0,0,1,.1-.445v-.727c-.031-.122-.015-.249-.041-.371a3.315,3.315,0,0,0-.858-1.639,3.439,3.439,0,0,0-4.89-.12,2.842,2.842,0,0,0-.37.408c0-.08,0-.128.007-.176S268.745,186.373,268.749,186.32Z" transform="translate(-85.067)"/>
    <path id="패스_509" data-name="패스 509" class="cls-1" d="M177.975,185.372a3.274,3.274,0,0,0-2.312,1.28.2.2,0,0,1-.105.093,4.13,4.13,0,0,1,.078-.864,5.916,5.916,0,0,1,3.148-4.24,5.959,5.959,0,0,1,2.585-.64.454.454,0,0,0,.2-.032.31.31,0,0,0-.166-.584,6.039,6.039,0,0,0-1.255.128,6.518,6.518,0,0,0-5.225,6.413c0,.591,0,1.183,0,1.774a3.7,3.7,0,0,0,.229,1.293,3.42,3.42,0,0,0,6.6-.882,3.422,3.422,0,0,0-3.772-3.738Z" transform="translate(0 -0.032)"/>
  </g>
</svg>
