<svg xmlns="http://www.w3.org/2000/svg" width="23.381" height="23.392" viewBox="0 0 23.381 23.392">
  <defs>
    <style>
      .cls-1 {
        fill: none;
        stroke: #8e7958;
      }
    </style>
  </defs>
  <path id="패스_568" data-name="패스 568" class="cls-1" d="M1181.621-65.715c-.922,1.989-1.859,3.971-2.786,5.958a.4.4,0,0,1-.343.267c-2.18.323-4.358.66-6.537.991a.735.735,0,0,0-.664.485.721.721,0,0,0,.228.788q2.391,2.445,4.78,4.892a.363.363,0,0,1,.118.359c-.383,2.3-.756,4.608-1.133,6.911a.728.728,0,0,0,.513.923.815.815,0,0,0,.621-.134l4.862-2.689c.325-.179.653-.351.971-.54a.328.328,0,0,1,.375,0q2.933,1.631,5.872,3.251a.709.709,0,0,0,.95-.107.739.739,0,0,0,.152-.655c-.357-2.182-.7-4.366-1.083-6.544a1.222,1.222,0,0,1,.014-.577.342.342,0,0,1,.03-.078,1.238,1.238,0,0,1,.285-.4c1.487-1.479,2.939-2.994,4.406-4.493a2.892,2.892,0,0,0,.376-.47v-.35a.844.844,0,0,0-.757-.574c-2.2-.325-4.4-.667-6.6-1-.133-.02-.159-.109-.2-.2q-1.471-3.132-2.938-6.267a.724.724,0,0,0-.655-.491c-.014,0-.028-.026-.041-.04h-.043C1181.961-66.412,1181.79-66.079,1181.621-65.715Z" transform="translate(-1170.748 67)"/>
</svg>
