<svg xmlns="http://www.w3.org/2000/svg" width="15.345" height="15.355" viewBox="0 0 15.345 15.355">
  <defs>
    <style>
      .cls-1 {
        opacity: 0.5;
      }

      .cls-2 {
        fill: #a9a9a9;
      }
    </style>
  </defs>
  <g id="그룹_174" data-name="그룹 174" class="cls-1">
    <path id="패스_420" data-name="패스 420" class="cls-2" d="M180.029-343.706a4.26,4.26,0,0,0-2.472-2.325,3.416,3.416,0,0,0-1.15-.215c-.411-.005-.822,0-1.233,0h-5.486a5.874,5.874,0,0,0-1.368.06,4.259,4.259,0,0,0-3.031,2.532,3.658,3.658,0,0,0-.289,1.184v7.792c.038.155.025.315.063.471a4.247,4.247,0,0,0,2.245,2.881,3.678,3.678,0,0,0,1.468.424h7.373a4.031,4.031,0,0,0,1.144-.129,4.426,4.426,0,0,0,.908-.38,4.149,4.149,0,0,0,.792-.577q.148-.138.283-.288a4.376,4.376,0,0,0,.894-1.527,4.033,4.033,0,0,0,.175-.875v-7.762A3.643,3.643,0,0,0,180.029-343.706Zm-1.045,8.513a2.873,2.873,0,0,1-2.286,2.871,3.124,3.124,0,0,1-.685.064q-3.342,0-6.683,0a2.884,2.884,0,0,1-2.875-2.149,3.011,3.011,0,0,1-.095-.785q0-3.379,0-6.758a2.866,2.866,0,0,1,2.462-2.9,3.368,3.368,0,0,1,.538-.033c1.1,0,2.208,0,3.312,0s2.238,0,3.357,0a2.878,2.878,0,0,1,2.86,2.149,3.01,3.01,0,0,1,.1.785Q178.986-338.572,178.984-335.193Z" transform="translate(-165 346.254)"/>
    <path id="패스_421" data-name="패스 421" class="cls-2" d="M204.551-310.545a3.942,3.942,0,0,0-3.937,3.94,3.943,3.943,0,0,0,3.936,3.926,3.943,3.943,0,0,0,3.93-3.933A3.941,3.941,0,0,0,204.551-310.545Zm0,6.509a2.579,2.579,0,0,1-2.577-2.588,2.577,2.577,0,0,1,2.585-2.564,2.576,2.576,0,0,1,2.57,2.58A2.577,2.577,0,0,1,204.547-304.036Z" transform="translate(-196.875 314.295)"/>
    <path id="패스_422" data-name="패스 422" class="cls-2" d="M269.564-321.566a1.165,1.165,0,0,0-1.174,1.154,1.166,1.166,0,0,0,1.163,1.165,1.165,1.165,0,0,0,1.166-1.163A1.164,1.164,0,0,0,269.564-321.566Z" transform="translate(-257.864 324.08)"/>
  </g>
</svg>
