<svg xmlns="http://www.w3.org/2000/svg" width="18.256" height="18.117" viewBox="0 0 18.256 18.117">
  <defs>
    <style>
      .cls-1 {
        opacity: 0.8;
      }

      .cls-2 {
        fill: #fff;
      }
    </style>
  </defs>
  <g id="그룹_212" data-name="그룹 212" class="cls-1" transform="translate(-709.042 253.793)">
    <path id="패스_516" data-name="패스 516" class="cls-2" d="M718.329-253.793a9.714,9.714,0,0,0-6.9,2.548,6.808,6.808,0,0,0-2.207,6.744,7.551,7.551,0,0,0,3.827,4.948.412.412,0,0,1,.227.558c-.239.917-.458,1.838-.68,2.759-.042.172-.121.372.051.5.194.149.337-.041.474-.14q1.557-1.133,3.1-2.28a.729.729,0,0,1,.572-.145,9.965,9.965,0,0,0,7.659-2.056,6.98,6.98,0,0,0,.575-10.771A9.479,9.479,0,0,0,718.329-253.793Zm-4.509,9.915c.007.4-.224.506-.556.5s-.466-.153-.459-.5c.017-.877,0-1.756.012-2.633,0-.253-.054-.357-.32-.324a3.924,3.924,0,0,1-.543,0,.47.47,0,0,1-.516-.525.572.572,0,0,1,.08-.3.336.336,0,0,1,.288-.138c.572-.041,1.145-.014,1.717-.031.184-.006.368-.018.552-.029.163-.01.326-.032.489-.045a.692.692,0,0,1,.426.077.465.465,0,0,1,.205.4.422.422,0,0,1-.45.484l-.125,0c-.8.018-.8.018-.8.84C713.816-245.355,713.806-244.616,713.819-243.878Zm4.228.426-.016.006a.509.509,0,0,1-.438,0,.558.558,0,0,1-.223-.358.8.8,0,0,0-.166-.4c-.151-.146-.381-.107-.572-.1-.089,0-.178,0-.268,0s-.173,0-.26,0a.728.728,0,0,0-.567.149.733.733,0,0,0-.178.443c-.034.3-.285.385-.575.272s-.444-.278-.32-.606q.639-1.7,1.271-3.395a.593.593,0,0,1,.627-.441.662.662,0,0,1,.687.433q.6,1.62,1.213,3.235a.688.688,0,0,1,.058.533A.507.507,0,0,1,718.048-243.452Zm2.859.035c-.613.009-1.227.007-1.84,0-.3,0-.407-.184-.4-.466.005-.585,0-1.171,0-1.756s.009-1.143,0-1.714a.455.455,0,0,1,.5-.529.465.465,0,0,1,.541.53c-.007.878.007,1.756-.008,2.634,0,.163.031.311.215.33a3.44,3.44,0,0,0,.388-.006q.189,0,.379,0a1.519,1.519,0,0,1,.331.021c.23.044.281.259.283.464C721.291-243.645,721.221-243.421,720.907-243.417Zm3.688-.117a.428.428,0,0,1-.54.068.845.845,0,0,1-.144-.164l-.653-.893c-.1-.141-.213-.28-.309-.426-.064-.1-.131-.228-.269-.165a.33.33,0,0,0-.188.342c.007.307-.012.615.005.922.022.375-.216.458-.5.457s-.493-.091-.486-.466c.02-1.187.017-2.375,0-3.562,0-.341.171-.448.454-.462s.542.035.542.41,0,.749,0,1.256c.548-.559,1.017-1.014,1.458-1.495.25-.273.435-.154.628.04a.563.563,0,0,1,.195.32c.013.149-.1.243-.19.341,0,.047-.179.188-.214.226l-.238.251c-.147.155-.289.314-.443.463s-.172.263-.026.443c.369.456.7.939,1.07,1.4C725-243.917,724.832-243.718,724.595-243.534Z"/>
    <path id="패스_517" data-name="패스 517" class="cls-2" d="M791.78-168.571l-.461-1.44c-.187.536-.329.94-.468,1.345-.026.075-.079.213,0,.221a8.246,8.246,0,0,0,.869.027c.064,0,.095-.045.075-.113Z" transform="translate(-74.912 -76.759)"/>
  </g>
</svg>
