<svg xmlns="http://www.w3.org/2000/svg" width="30.441" height="24.976" viewBox="0 0 30.441 24.976">
  <defs>
    <style>
      .cls-1 {
        fill: #fff;
      }
    </style>
  </defs>
  <g id="그룹_174" data-name="그룹 174" transform="translate(0 0)">
    <path id="패스_420" data-name="패스 420" class="cls-1" d="M242.079-320.042c-1.962,0-3.924,0-5.886.006a.357.357,0,0,1-.378-.237c-.552-1.126-1.125-2.242-1.673-3.369a1.894,1.894,0,0,0-1.864-1.16q-3.255.019-6.51,0a1.88,1.88,0,0,0-1.842,1.146c-.507,1.038-1.055,2.057-1.535,3.107a.736.736,0,0,1-.835.518c-.6-.043-.6-.011-.611-.619a1.784,1.784,0,0,0-1.787-1.768c-.347-.005-.694,0-1.04,0a1.792,1.792,0,0,0-1.929,1.925c0,.453,0,.453-.439.453a1.8,1.8,0,0,0-1.939,1.945q0,8.16,0,16.319a2.509,2.509,0,0,0,.029.473,1.784,1.784,0,0,0,1.873,1.477h25.713c.347,0,.694,0,1.04,0a1.784,1.784,0,0,0,1.692-1.218c.025-.069,0-.165.092-.207v-17.3A1.872,1.872,0,0,0,242.079-320.042Zm-24.7-.178c.012-.137,0-.277,0-.415a.584.584,0,0,1,.58-.591c.405-.012.812-.013,1.217,0a.589.589,0,0,1,.58.623c.022.562.022.562-.537.562H218.6c-.346,0-.693-.007-1.039,0C217.414-320.034,217.363-320.076,217.375-320.22Zm11.672,1.367h13.193c.65,0,.823.175.823.831,0,.832-.006,1.664,0,2.5,0,.19-.043.246-.24.245q-4.011-.01-8.023,0a.47.47,0,0,1-.358-.159,7.7,7.7,0,0,0-10.829,0,.505.505,0,0,1-.39.154q-3.982-.006-7.963,0c-.231,0-.272-.065-.269-.278.013-.842,0-1.684.006-2.526,0-.574.194-.769.765-.769Zm-5.089-2.194c.357-.715.72-1.427,1.069-2.146a.68.68,0,0,1,.68-.42q3.327.008,6.652,0a.62.62,0,0,1,.62.322c.538,1.064,1.07,2.132,1.624,3.238H223.46Zm19.1,15.005c0,.143.045.276-.208.275-2.417-.012-4.833-.007-7.286-.007a7.845,7.845,0,0,0,0-8.324h.245c2.327,0,4.655,0,6.983-.006.226,0,.272.059.271.276C243.059-311.231,243.062-308.636,243.062-306.041Zm-14.047,2.646a6.548,6.548,0,0,1-6.524-6.549,6.545,6.545,0,0,1,6.54-6.531,6.545,6.545,0,0,1,6.539,6.562A6.547,6.547,0,0,1,229.015-303.395ZM215-313.81c0-.215.031-.3.28-.3,2.328.012,4.656.007,6.984.007h.231a7.859,7.859,0,0,0,0,8.328h-1c-2.071,0-4.141,0-6.212.005-.226,0-.292-.049-.291-.285Q215.008-309.931,215-313.81Zm0,12c0-.842,0-1.685,0-2.527,0-.175.017-.255.231-.254q4.013.013,8.026,0a.471.471,0,0,1,.36.154,7.7,7.7,0,0,0,10.833,0,.507.507,0,0,1,.39-.153q3.983.006,7.967,0c.2,0,.268.036.264.253-.014.862,0,1.724-.006,2.586,0,.527-.209.733-.743.733H215.8C215.187-301.016,215-301.2,215-301.809Z" transform="translate(-213.81 324.802)"/>
    <path id="패스_421" data-name="패스 421" class="cls-1" d="M287.921-303.194c.187.008.375,0,.563,0,.207,0,.415.008.622,0a.592.592,0,0,0,.588-.583.59.59,0,0,0-.6-.6c-.4-.01-.791-.011-1.186,0a.586.586,0,0,0-.588.582A.6.6,0,0,0,287.921-303.194Z" transform="translate(-261.635 311.519)"/>
    <path id="패스_422" data-name="패스 422" class="cls-1" d="M281.108-303.181a.6.6,0,0,0,.592-.609.6.6,0,0,0-.594-.577.6.6,0,0,0-.592.579A.6.6,0,0,0,281.108-303.181Z" transform="translate(-257.207 311.507)"/>
    <path id="패스_423" data-name="패스 423" class="cls-1" d="M247.417-297.565a5.359,5.359,0,0,0-5.36,5.333,5.36,5.36,0,0,0,5.326,5.368,5.36,5.36,0,0,0,5.375-5.35A5.358,5.358,0,0,0,247.417-297.565Zm-.013,9.512a4.17,4.17,0,0,1-4.158-4.18,4.169,4.169,0,0,1,4.164-4.143,4.168,4.168,0,0,1,4.158,4.179A4.171,4.171,0,0,1,247.4-288.053Z" transform="translate(-232.187 307.082)"/>
    <path id="패스_424" data-name="패스 424" class="cls-1" d="M254.644-317.985q-1.707,0-3.413,0a.6.6,0,0,0-.664.6.605.605,0,0,0,.676.587c.574,0,1.147,0,1.721,0,.554,0,1.108,0,1.662,0,.425,0,.7-.24.693-.6A.6.6,0,0,0,254.644-317.985Z" transform="translate(-237.724 320.369)"/>
    <path id="패스_425" data-name="패스 425" class="cls-1" d="M251.744-290.752a2.987,2.987,0,0,0-2.873,2.838c-.012.427.207.708.565.724s.6-.244.623-.673a1.785,1.785,0,0,1,1.725-1.7.607.607,0,0,0,.649-.616A.608.608,0,0,0,251.744-290.752Z" transform="translate(-236.62 302.65)"/>
  </g>
</svg>
