<svg xmlns="http://www.w3.org/2000/svg" width="30.44" height="30.475" viewBox="0 0 30.44 30.475">
  <defs>
    <style>
      .cls-1 {
        fill: #fff;
      }
    </style>
  </defs>
  <g id="그룹_177" data-name="그룹 177" transform="translate(0 0)">
    <path id="패스_434" data-name="패스 434" class="cls-1" d="M376.874-323.549a7.629,7.629,0,0,0-3.279-4.713,7.245,7.245,0,0,0-4.861-1.211,1.2,1.2,0,0,1-1.111-.4,7.984,7.984,0,0,0-3.228-2,7.885,7.885,0,0,0-1.855-.344h-1.724c-.325.082-.664.067-.991.149a8.253,8.253,0,0,0-4.107,2.379.713.713,0,0,1-.711.234,6.347,6.347,0,0,0-1.66-.025,7.372,7.372,0,0,0-3.432,1.235,7.7,7.7,0,0,0-2.771,3.261,6.89,6.89,0,0,0-.6,2.279v1.724c.078.317.05.646.132.964a7.624,7.624,0,0,0,3.581,4.8.645.645,0,0,1,.367.639c-.018.792-.006,1.585-.006,2.378,0,2.547.006,5.093,0,7.639a2.843,2.843,0,0,0,2.752,2.818c5.6-.014,11.2-.005,16.794-.006a2.453,2.453,0,0,0,1.481-.445,2.85,2.85,0,0,0,1.267-2.426c0-3.279.008-6.559-.008-9.839a.831.831,0,0,1,.47-.823,7.46,7.46,0,0,0,2.984-3.337,6.816,6.816,0,0,0,.63-2.362v-1.605C376.918-322.9,376.951-323.23,376.874-323.549Zm-12.653-6.812a6.684,6.684,0,0,1,4.393,5.489,7.9,7.9,0,0,1,.065.888c.026.487.306.771.733.753a.7.7,0,0,0,.657-.8,8.211,8.211,0,0,0-.916-3.649c-.05-.1-.1-.194-.145-.292-.007-.016,0-.037,0-.077a5.8,5.8,0,0,1,3.435.795,5.972,5.972,0,0,1,3.144,5.49,5.959,5.959,0,0,1-3.478,5.49,1.056,1.056,0,0,0-.665,1.087c.025,2.07.006,4.142.016,6.212,0,.243-.072.288-.3.288q-9.393-.009-18.786,0c-.264,0-.3-.088-.3-.32.012-2.091,0-4.181.021-6.272a.913.913,0,0,0-.592-.948,6.186,6.186,0,0,1-3.568-5.974,6.224,6.224,0,0,1,4.557-5.643,5.847,5.847,0,0,1,2.027-.2c.015.138-.078.227-.13.328a8.3,8.3,0,0,0-.931,3.706.711.711,0,0,0,.528.765.7.7,0,0,0,.79-.383,1.206,1.206,0,0,0,.077-.466,6.611,6.611,0,0,1,2.417-5.064A6.577,6.577,0,0,1,364.221-330.361Zm-12.14,25.65c0-.773.013-1.545-.005-2.318-.006-.25.083-.283.3-.282q4.7.009,9.391,0c3.13,0,6.261,0,9.391-.006.25,0,.309.061.3.307-.018.772,0,1.545-.007,2.318a1.45,1.45,0,0,1-1.526,1.533q-8.157,0-16.315,0A1.451,1.451,0,0,1,352.081-304.711Z" transform="translate(-346.547 332.216)"/>
    <path id="패스_435" data-name="패스 435" class="cls-1" d="M369.392-288.53a7.636,7.636,0,0,1-1.7-3.532.639.639,0,0,0-.767-.53.709.709,0,0,0-.587.762c0,.037.008.1.016.155a9.346,9.346,0,0,0,2.287,4.411.64.64,0,0,0,.89.044.691.691,0,0,0,.157-.907C369.6-288.268,369.488-288.392,369.392-288.53Z" transform="translate(-359.425 306.441)"/>
    <path id="패스_436" data-name="패스 436" class="cls-1" d="M404.248-287.216a.7.7,0,0,0,1.032-.2,13.892,13.892,0,0,0,1.488-2.277,5.458,5.458,0,0,0,.671-2.129.7.7,0,0,0-.616-.77.666.666,0,0,0-.761.65,4.106,4.106,0,0,1-.488,1.54,12.969,12.969,0,0,1-1.381,2.135A.71.71,0,0,0,404.248-287.216Z" transform="translate(-383.918 306.439)"/>
    <path id="패스_437" data-name="패스 437" class="cls-1" d="M388.112-287.8a.7.7,0,0,0,.7.728.691.691,0,0,0,.684-.714q.016-2.062,0-4.124a.667.667,0,0,0-.609-.687.691.691,0,0,0-.776.761c-.008.663,0,1.325,0,1.988C388.109-289.16,388.1-288.477,388.112-287.8Z" transform="translate(-373.584 306.44)"/>
  </g>
</svg>
