<svg id="그룹_175" data-name="그룹 175" xmlns="http://www.w3.org/2000/svg" width="33.631" height="31.757" viewBox="0 0 33.631 31.757">
  <defs>
    <style>
      .cls-1 {
        fill: #fff;
      }
    </style>
  </defs>
  <path id="패스_426" data-name="패스 426" class="cls-1" d="M486.912-318.186q-3.761-1.432-7.527-2.85a1.111,1.111,0,0,0-1.5.6c-.96,1.972-1.933,3.937-2.864,5.923a5.793,5.793,0,0,0,2.448,7.557c.216.12.257.215.167.448q-1.013,2.625-2,5.261c-.132.352-.245.6-.723.688-1.071.192-2.115.534-3.175.792a1.1,1.1,0,0,0-.735.472v.394a.972.972,0,0,0,.521.461q3.157,1.182,6.308,2.378a.668.668,0,0,0,.858-.153c.2-.25.179-.517-.059-.872q-.667-.993-1.337-1.985a10.961,10.961,0,0,0-.735-1.044.312.312,0,0,1-.07-.382q1.074-2.829,2.138-5.663c.073-.2.15-.263.375-.212a5.776,5.776,0,0,0,6.847-3.971c.635-2.134,1.215-4.283,1.812-6.428A1.112,1.112,0,0,0,486.912-318.186Zm-9.881,20.492a.5.5,0,0,1,.143.31.881.881,0,0,1-.1-.019l-4.274-1.619c.695-.18,1.323-.321,1.937-.51a1.229,1.229,0,0,1,.913.051.838.838,0,0,1,.4.317C476.367-298.67,476.7-298.186,477.031-297.694Zm9.645-19.208c-.181.606-.353,1.216-.509,1.829a.357.357,0,0,1-.37.317c-1.286.107-2.571.228-3.857.346-.643.059-1.285.115-1.927.181-.415.043-.6.241-.559.565.042.307.279.448.666.412q2.663-.25,5.326-.492a.57.57,0,0,1,.34.02c-.318,1.11-.584,2.239-.964,3.328a4.81,4.81,0,0,1-5.631,3.067,4.863,4.863,0,0,1-3.723-5.234c.02-.19.07-.283.288-.3.556-.034,1.111-.1,1.666-.157.354-.038.554-.259.515-.548a.523.523,0,0,0-.629-.429l-1.48.137a2.829,2.829,0,0,1,.28-.665c.859-1.778,1.722-3.554,2.572-5.336.117-.245.221-.314.494-.21q3.635,1.394,7.281,2.758C486.68-317.227,486.745-317.131,486.676-316.9Z" transform="translate(-471 327.726)"/>
  <path id="패스_427" data-name="패스 427" class="cls-1" d="M535.661-299.7c-.359-.093-.717-.191-1.076-.284-.824-.213-1.645-.441-2.476-.624-.24-.053-.376-.1-.47-.356q-1.027-2.777-2.095-5.539c-.087-.227-.055-.323.162-.449a5.636,5.636,0,0,0,3-4.714,6.109,6.109,0,0,0-.59-2.93q-1.39-2.89-2.789-5.776a1.141,1.141,0,0,0-1.6-.635l-7.437,2.811a1.132,1.132,0,0,0-.752,1.516c.573,2.061,1.141,4.123,1.724,6.18a5.807,5.807,0,0,0,6.9,4.132c.251-.058.315.031.39.235q1.026,2.743,2.072,5.477a.564.564,0,0,1-.084.641c-.721.988-1.384,2.018-2.067,3.034a.6.6,0,0,0,0,.76.614.614,0,0,0,.762.2q3.244-1.225,6.486-2.456a.609.609,0,0,0,.437-.625A.611.611,0,0,0,535.661-299.7Zm-8.143-7.542a4.832,4.832,0,0,1-5.336-3.654c-.261-.944-.526-1.886-.8-2.869.5.047.968.09,1.434.136a.523.523,0,0,0,.539-.236.454.454,0,0,0-.01-.525.514.514,0,0,0-.417-.222c-.512-.041-1.023-.1-1.536-.134a.374.374,0,0,1-.388-.337c-.153-.6-.322-1.2-.5-1.8-.065-.217-.034-.328.2-.416q3.677-1.375,7.345-2.774c.178-.067.292-.087.392.121q1.423,2.965,2.86,5.923a1.084,1.084,0,0,1,.044.148,7.1,7.1,0,0,1-1.236-.08c-1.471-.123-2.941-.265-4.411-.4-.376-.034-.6.107-.637.4-.043.319.132.533.521.57,1.317.129,2.636.243,3.953.364.642.059,1.284.13,1.928.176.177.013.214.092.236.238A4.868,4.868,0,0,1,527.517-307.239Zm2.521,9.872-.057-.077c.419-.622.812-1.266,1.272-1.856a.888.888,0,0,1,.827-.3c.745.155,1.477.373,2.3.587Z" transform="translate(-502.538 327.716)"/>
  <path id="패스_428" data-name="패스 428" class="cls-1" d="M552.532-328.475c.173.015.4-.044.507.043s.024.328.046.5a.465.465,0,0,0,.494.461.466.466,0,0,0,.458-.5,1.06,1.06,0,0,0,0-.229c-.041-.24.067-.309.289-.278a1.024,1.024,0,0,0,.295,0,.442.442,0,0,0,.416-.425.474.474,0,0,0-.508-.52c-.463-.029-.463-.029-.491-.505a.49.49,0,0,0-.456-.506.491.491,0,0,0-.5.466c-.023.172.076.389-.05.5s-.336.022-.51.043a.448.448,0,0,0-.444.476A.447.447,0,0,0,552.532-328.475Z" transform="translate(-523.75 333.777)"/>
  <path id="패스_429" data-name="패스 429" class="cls-1" d="M478.205-328.475c.491.032.491.032.518.5,0,.022,0,.044,0,.066a.447.447,0,0,0,.455.427.431.431,0,0,0,.482-.393,1.567,1.567,0,0,0,.014-.392c-.015-.177.056-.231.224-.214a1.573,1.573,0,0,0,.361,0,.469.469,0,0,0,.425-.439.475.475,0,0,0-.549-.5c-.366.029-.5-.069-.467-.457a.477.477,0,0,0-.459-.564.479.479,0,0,0-.479.573c.029.352-.064.514-.434.44a.356.356,0,0,0-.1,0,.458.458,0,0,0-.474.477A.463.463,0,0,0,478.205-328.475Z" transform="translate(-475.374 333.779)"/>
  <path id="패스_430" data-name="패스 430" class="cls-1" d="M516.844-337.591c.012-.439.012-.439.449-.45.347-.008.553-.179.56-.464a.473.473,0,0,0-.572-.477c-.36.029-.478-.076-.445-.442a.475.475,0,0,0-.473-.576c-.28.005-.456.218-.465.56-.012.433-.012.433-.452.45-.345.013-.554.188-.558.468a.471.471,0,0,0,.575.473c.361-.031.475.076.443.441s.17.576.472.571S516.833-337.239,516.844-337.591Z" transform="translate(-499.552 340)"/>
</svg>
