<svg xmlns="http://www.w3.org/2000/svg" width="30.503" height="30.453" viewBox="0 0 30.503 30.453">
  <defs>
    <style>
      .cls-1 {
        fill: #fff;
      }
    </style>
  </defs>
  <g id="그룹_176" data-name="그룹 176" transform="translate(0 0)">
    <path id="패스_431" data-name="패스 431" class="cls-1" d="M120.19-323.987c-.716-.611-1.422-1.233-2.148-1.831a.829.829,0,0,1-.327-.713c.009-1.932.007-3.864,0-5.8a1,1,0,0,0-1.1-1.112q-1.665-.007-3.329,0a1,1,0,0,0-1.085,1.07c-.011.416,0,.832,0,1.248,0,.071.038.159-.049.211a.364.364,0,0,1-.153-.1c-1.35-1.148-2.721-2.275-4.042-3.456a2.992,2.992,0,0,0-3.83,0c-1.965,1.724-3.978,3.394-5.973,5.083-2.132,1.8-4.257,3.616-6.393,5.416a2.627,2.627,0,0,0-1.059,1.939q-.006.129,0,.262a3.944,3.944,0,0,0,.157.9,2.671,2.671,0,0,0,3.075,1.8c.284-.048.3-.031.313.26,0,.089,0,.178,0,.267q0,6.286,0,12.572a3.319,3.319,0,0,0,.017.475c.049.337.344.755.716.763l0,.025h22c0-.007-.011-.014-.01-.02a.045.045,0,0,1,0-.012.708.708,0,0,0,.615-.406,1.318,1.318,0,0,0,.137-.718q0-6.3,0-12.6c0-.1,0-.2,0-.3.008-.324.031-.348.344-.293a2.407,2.407,0,0,0,.827.014,2.628,2.628,0,0,0,2.3-2.319v-.773A2.53,2.53,0,0,0,120.19-323.987Zm-5.92-7.593c.465.008.93.008,1.4,0,.15,0,.2.032.2.194-.007,1.217,0,2.435,0,3.652a.723.723,0,0,1-.029.118c-.565-.481-1.1-.938-1.636-1.388a.319.319,0,0,1-.127-.276c0-.7.008-1.405,0-2.108C114.065-331.553,114.123-331.583,114.269-331.58Zm1.6,24.827c0,.23-.065.272-.28.27q-1.962-.015-3.924,0c-.222,0-.275-.052-.275-.274.009-2.527.006-5.053.005-7.58,0-.738-.331-1.07-1.066-1.07h-8.71a.915.915,0,0,0-1.037,1.04c0,2.527,0,5.054.006,7.58,0,.249-.06.307-.307.3q-1.932-.021-3.864,0c-.241,0-.31-.048-.309-.3.011-2.25.007-4.5.007-6.748,0-2.219.005-4.439-.007-6.659a.664.664,0,0,1,.272-.57q4.741-4.011,9.471-8.035c.157-.134.243-.118.39.008q4.712,4.046,9.435,8.079a.469.469,0,0,1,.189.4Q115.859-313.531,115.868-306.753Zm-6.244.041c0,.184-.047.229-.23.228q-3.4-.01-6.806,0c-.211,0-.233-.076-.233-.254q.007-3.328,0-6.656c0-.195.051-.245.244-.243,1.139.009,2.278,0,3.418,0,1.119,0,2.239,0,3.358,0,.182,0,.252.03.251.237Q109.613-310.055,109.624-306.712Zm9.3-14.263a.828.828,0,0,1-.946-.1c-.587-.486-1.162-.988-1.741-1.484l-9.405-8.065a.976.976,0,0,0-1.558-.007q-5.563,4.718-11.118,9.444a.922.922,0,0,1-1.569-.351.9.9,0,0,1,.33-.95l6.639-5.63q2.877-2.44,5.755-4.881a.949.949,0,0,1,1.465-.01q6.1,5.228,12.21,10.453a1.05,1.05,0,0,1,.439.827A.864.864,0,0,1,118.921-320.974Z" transform="translate(-90.703 335.156)"/>
    <path id="패스_432" data-name="패스 432" class="cls-1" d="M130.343-304.5c-.882,0-1.763,0-2.645,0s-1.783,0-2.675,0a.877.877,0,0,0-.941.923q-.013,2.645,0,5.29a.88.88,0,0,0,.948.919q2.66,0,5.32,0a.9.9,0,0,0,.973-.986q0-2.585,0-5.171A.9.9,0,0,0,130.343-304.5Zm-.792,5.15c0,.148-.029.2-.193.2q-1.662-.011-3.324,0c-.142,0-.184-.039-.183-.182.006-1.068.008-2.137,0-3.205,0-.175.071-.187.208-.186.554.005,1.108,0,1.662,0s1.088.005,1.632,0c.152,0,.2.036.2.2Q129.541-300.935,129.551-299.347Z" transform="translate(-112.415 315.211)"/>
    <path id="패스_433" data-name="패스 433" class="cls-1" d="M135.476-268.422a.9.9,0,0,0-.863.91.9.9,0,0,0,.9.872.9.9,0,0,0,.878-.9A.9.9,0,0,0,135.476-268.422Z" transform="translate(-119.27 291.74)"/>
  </g>
</svg>
