<svg xmlns="http://www.w3.org/2000/svg" width="115.002" height="58.439" viewBox="0 0 115.002 58.439">
  <defs>
    <style>
      .cls-1 {
        fill: #5c5c5c;
      }

      .cls-2 {
        fill: #8e7958;
      }
    </style>
  </defs>
  <g id="그룹_216" data-name="그룹 216" transform="translate(-454 -79.561)">
    <g id="그룹_170" data-name="그룹 170" transform="translate(455.527 124.218)">
      <g id="그룹_156" data-name="그룹 156" transform="translate(0 0.425)">
        <path id="패스_386" data-name="패스 386" class="cls-1" d="M921.574,577.334h4.975v.935h-4.975v4.082h-1.006v-9.639h6.577v.922h-5.571Z" transform="translate(-920.467 -572.612)"/>
        <path id="패스_387" data-name="패스 387" class="cls-1" d="M921.652,582.43h-1.209v-9.841h6.78v1.124h-5.571v3.5h4.976v1.138h-4.976Z" transform="translate(-920.443 -572.588)"/>
      </g>
      <g id="그룹_157" data-name="그룹 157" transform="translate(7.244 3.345)">
        <path id="패스_388" data-name="패스 388" class="cls-1" d="M932.968,583.325a3.567,3.567,0,1,1,3.574-3.589A3.55,3.55,0,0,1,932.968,583.325Zm0-6.039a2.4,2.4,0,0,0-2.408,2.45,2.409,2.409,0,1,0,4.815,0A2.4,2.4,0,0,0,932.968,577.286Z" transform="translate(-929.38 -576.191)"/>
      </g>
      <g id="그룹_158" data-name="그룹 158" transform="translate(15.538 3.345)">
        <path id="패스_389" data-name="패스 389" class="cls-1" d="M940.7,577.62a3.117,3.117,0,0,1,2.566-1.3v.921a3.028,3.028,0,0,0-2.566,1.517v4.28h-.964v-6.548h.964Z" transform="translate(-939.635 -576.215)"/>
        <path id="패스_390" data-name="패스 390" class="cls-1" d="M940.777,583.112h-1.166v-6.751h1.166v.948a3.213,3.213,0,0,1,2.464-1.118h.1v1.121l-.1,0a2.933,2.933,0,0,0-2.467,1.444Z" transform="translate(-939.611 -576.191)"/>
      </g>
      <g id="그룹_159" data-name="그룹 159" transform="translate(22.596 3.317)">
        <path id="패스_391" data-name="패스 391" class="cls-1" d="M949.37,581c.2.892.893,1.431,2.169,1.431,1.063,0,1.786-.454,1.786-1.162,0-.581-.468-.935-1.134-1.035l-1.488-.255c-1.091-.17-1.942-.653-1.942-1.757,0-1.177,1.049-1.942,2.622-1.942,1.333,0,2.722.581,2.835,2.083h-.893c-.127-.85-.836-1.3-1.942-1.3-1.034,0-1.672.454-1.672,1.092,0,.5.354.879,1.29,1.021l1.3.227c.95.156,1.956.567,1.956,1.814,0,1.276-1.148,2.027-2.75,2.027-1.7,0-2.836-.751-3.048-2.24Z" transform="translate(-948.346 -576.18)"/>
        <path id="패스_392" data-name="패스 392" class="cls-1" d="M951.484,583.318c-1.816,0-2.934-.827-3.148-2.327l-.017-.115h1.106l.017.079c.2.9.9,1.353,2.07,1.353,1.023,0,1.684-.417,1.684-1.061,0-.494-.382-.835-1.047-.935l-1.491-.255c-1.344-.209-2.026-.834-2.026-1.857,0-1.222,1.1-2.044,2.724-2.044,1.34,0,2.815.571,2.936,2.177l.009.109h-1.089l-.013-.086c-.118-.785-.772-1.218-1.842-1.218-.94,0-1.571.4-1.571.991,0,.5.394.8,1.2.92l1.307.228c1.353.222,2.039.866,2.039,1.914C954.334,582.483,953.216,583.318,951.484,583.318Z" transform="translate(-948.319 -576.156)"/>
      </g>
      <g id="그룹_160" data-name="그룹 160" transform="translate(29.814 3.345)">
        <path id="패스_393" data-name="패스 393" class="cls-1" d="M964.066,579.76a3.4,3.4,0,0,1-3.387,3.459,3.306,3.306,0,0,1-2.367-.922v4.252h-.964V576.486h.964v.751a3.306,3.306,0,0,1,2.367-.921A3.4,3.4,0,0,1,964.066,579.76Zm-.964,0a2.565,2.565,0,0,0-2.537-2.594,2.62,2.62,0,0,0-2.253,1.218v2.765a2.621,2.621,0,0,0,2.253,1.219A2.569,2.569,0,0,0,963.1,579.76Z" transform="translate(-957.247 -576.215)"/>
        <path id="패스_394" data-name="패스 394" class="cls-1" d="M958.389,586.627h-1.166V576.361h1.166v.623a3.432,3.432,0,0,1,2.266-.794,3.553,3.553,0,0,1,0,7.106,3.439,3.439,0,0,1-2.266-.794Zm0-5.533a2.517,2.517,0,0,0,2.152,1.149,2.5,2.5,0,0,0,0-5,2.517,2.517,0,0,0-2.152,1.149Z" transform="translate(-957.223 -576.191)"/>
      </g>
      <g id="그룹_161" data-name="그룹 161" transform="translate(37.54 3.345)">
        <path id="패스_395" data-name="패스 395" class="cls-1" d="M970.244,583.3a3.553,3.553,0,0,1,0-7.106,3.483,3.483,0,0,1,2.266.783v-.613h1.166v6.751h-1.166v-.6A3.484,3.484,0,0,1,970.244,583.3Zm.127-6.053a2.5,2.5,0,0,0,0,5,2.538,2.538,0,0,0,2.138-1.122v-2.757A2.537,2.537,0,0,0,970.371,577.244Z" transform="translate(-966.754 -576.191)"/>
      </g>
      <g id="그룹_162" data-name="그룹 162" transform="translate(45.607 3.345)">
        <path id="패스_396" data-name="패스 396" class="cls-1" d="M982.316,580.851h1.007a2.989,2.989,0,0,1-3.076,2.368,3.452,3.452,0,0,1,0-6.9,2.988,2.988,0,0,1,3.076,2.367h-1.007a1.988,1.988,0,0,0-2.07-1.474,2.562,2.562,0,0,0,0,5.117A1.988,1.988,0,0,0,982.316,580.851Z" transform="translate(-976.73 -576.215)"/>
        <path id="패스_397" data-name="패스 397" class="cls-1" d="M980.223,583.3a3.553,3.553,0,0,1,0-7.106,3.081,3.081,0,0,1,3.176,2.45l.024.12h-1.21l-.019-.078a1.879,1.879,0,0,0-1.971-1.4,2.46,2.46,0,0,0,0,4.915,1.879,1.879,0,0,0,1.971-1.4l.019-.079h1.21l-.024.121A3.083,3.083,0,0,1,980.223,583.3Z" transform="translate(-976.706 -576.191)"/>
      </g>
      <g id="그룹_163" data-name="그룹 163" transform="translate(53.092 3.345)">
        <path id="패스_398" data-name="패스 398" class="cls-1" d="M992.642,580.143l-.057-.028v.028h-5.542a2.4,2.4,0,0,0,2.451,2.24,1.987,1.987,0,0,0,1.9-1.007h1.049a2.977,2.977,0,0,1-2.977,1.843,3.452,3.452,0,0,1,0-6.9,3.2,3.2,0,0,1,3.19,3.416A3.718,3.718,0,0,1,992.642,580.143Zm-5.6-.751h4.635a2.226,2.226,0,0,0-2.24-2.24A2.383,2.383,0,0,0,987.043,579.391Z" transform="translate(-985.964 -576.215)"/>
        <path id="패스_399" data-name="패스 399" class="cls-1" d="M989.443,583.3a3.553,3.553,0,0,1,0-7.106,3.315,3.315,0,0,1,3.291,3.516,3.8,3.8,0,0,1-.015.423l-.015.144-.109-.054h-5.46a2.271,2.271,0,0,0,2.336,2.037,1.9,1.9,0,0,0,1.808-.948l.028-.058h1.255l-.046.135A3.094,3.094,0,0,1,989.443,583.3Zm-2.308-4.03h4.406a2.114,2.114,0,0,0-2.127-2.037A2.274,2.274,0,0,0,987.136,579.266Z" transform="translate(-985.94 -576.191)"/>
      </g>
      <g id="그룹_164" data-name="그룹 164" transform="translate(64.149 3.302)">
        <path id="패스_400" data-name="패스 400" class="cls-1" d="M1005.887,579.254v3.77h-.964V579.3a1.924,1.924,0,0,0-2-2.14,2.839,2.839,0,0,0-2.253,1.218v4.65h-.965v-6.548h.965v.779a3.347,3.347,0,0,1,2.424-.992A2.728,2.728,0,0,1,1005.887,579.254Z" transform="translate(-999.605 -576.162)"/>
        <path id="패스_401" data-name="패스 401" class="cls-1" d="M1005.964,583.1H1004.8v-3.829a1.829,1.829,0,0,0-1.9-2.039,2.731,2.731,0,0,0-2.152,1.15V583.1h-1.167v-6.751h1.167V577a3.47,3.47,0,0,1,2.322-.858,2.838,2.838,0,0,1,2.894,3.092Z" transform="translate(-999.581 -576.138)"/>
      </g>
      <g id="그룹_165" data-name="그룹 165" transform="translate(71.38 3.345)">
        <path id="패스_402" data-name="패스 402" class="cls-1" d="M1015.586,579.76a3.48,3.48,0,1,1-3.473-3.444A3.429,3.429,0,0,1,1015.586,579.76Zm-.963,0a2.511,2.511,0,1,0-2.51,2.609A2.505,2.505,0,0,0,1014.623,579.76Z" transform="translate(-1008.525 -576.215)"/>
        <path id="패스_403" data-name="패스 403" class="cls-1" d="M1012.089,583.325a3.567,3.567,0,1,1,3.574-3.589A3.551,3.551,0,0,1,1012.089,583.325Zm0-6.039a2.4,2.4,0,0,0-2.407,2.45,2.41,2.41,0,1,0,4.816,0A2.4,2.4,0,0,0,1012.089,577.286Z" transform="translate(-1008.501 -576.191)"/>
      </g>
      <g id="그룹_166" data-name="그룹 166" transform="translate(79.674 3.302)">
        <path id="패스_404" data-name="패스 404" class="cls-1" d="M1029.559,579.254v3.77h-.964V579.3c0-1.361-.709-2.14-1.885-2.14a2.383,2.383,0,0,0-2.1,1.261,3.841,3.841,0,0,1,.085.836v3.77h-.964V579.3c0-1.361-.722-2.14-1.885-2.14a2.408,2.408,0,0,0-2.027,1.191v4.677h-.964v-6.548h.964v.751a2.724,2.724,0,0,1,2.2-.964,2.522,2.522,0,0,1,2.24,1.219,3.174,3.174,0,0,1,2.622-1.219A2.682,2.682,0,0,1,1029.559,579.254Z" transform="translate(-1018.757 -576.162)"/>
        <path id="패스_405" data-name="패스 405" class="cls-1" d="M1029.637,583.1h-1.167v-3.829c0-1.3-.65-2.039-1.784-2.039a2.256,2.256,0,0,0-1.99,1.178,3.959,3.959,0,0,1,.079.819V583.1h-1.167v-3.829c0-1.277-.667-2.039-1.784-2.039a2.315,2.315,0,0,0-1.925,1.12V583.1h-1.166v-6.751h1.166v.6a2.83,2.83,0,0,1,2.1-.811,2.647,2.647,0,0,1,2.252,1.149,3.283,3.283,0,0,1,2.61-1.149,2.791,2.791,0,0,1,2.78,3.092Z" transform="translate(-1018.733 -576.138)"/>
      </g>
      <g id="그룹_167" data-name="그룹 167" transform="translate(91.44 3.345)">
        <path id="패스_406" data-name="패스 406" class="cls-1" d="M1040.093,583.034h-.965v-.722a3.335,3.335,0,0,1-2.367.907,3.452,3.452,0,0,1,0-6.9,3.331,3.331,0,0,1,2.367.907v-.737h.965Zm-.965-1.856v-2.821a2.651,2.651,0,0,0-2.24-1.191,2.6,2.6,0,0,0,0,5.2A2.653,2.653,0,0,0,1039.128,581.178Z" transform="translate(-1033.272 -576.215)"/>
        <path id="패스_407" data-name="패스 407" class="cls-1" d="M1036.738,583.3a3.553,3.553,0,0,1,0-7.106,3.482,3.482,0,0,1,2.266.783v-.613h1.167v6.751H1039v-.6A3.485,3.485,0,0,1,1036.738,583.3Zm.127-6.053a2.5,2.5,0,0,0,0,5,2.538,2.538,0,0,0,2.138-1.122v-2.757A2.537,2.537,0,0,0,1036.865,577.244Z" transform="translate(-1033.248 -576.191)"/>
      </g>
      <g id="그룹_168" data-name="그룹 168" transform="translate(99.507)">
        <path id="패스_408" data-name="패스 408" class="cls-1" d="M1050.044,582.253h-.965v-.722a3.325,3.325,0,0,1-2.367.892,3.445,3.445,0,0,1,0-6.888,3.325,3.325,0,0,1,2.367.892v-4.238h.965Zm-.965-1.871v-2.806a2.631,2.631,0,0,0-2.239-1.205,2.6,2.6,0,0,0,0,5.2A2.651,2.651,0,0,0,1049.079,580.382Z" transform="translate(-1043.224 -572.088)"/>
        <path id="패스_409" data-name="패스 409" class="cls-1" d="M1046.689,582.5a3.546,3.546,0,0,1,0-7.091,3.441,3.441,0,0,1,2.266.768v-4.114h1.167V582.33h-1.167v-.6A3.441,3.441,0,0,1,1046.689,582.5Zm.128-6.053a2.5,2.5,0,0,0,0,5,2.534,2.534,0,0,0,2.137-1.121v-2.743A2.517,2.517,0,0,0,1046.817,576.448Z" transform="translate(-1043.2 -572.064)"/>
      </g>
      <g id="그룹_169" data-name="그룹 169" transform="translate(107.459 3.317)">
        <path id="패스_410" data-name="패스 410" class="cls-1" d="M1054.062,581c.2.892.892,1.431,2.169,1.431,1.063,0,1.786-.454,1.786-1.162,0-.581-.468-.935-1.135-1.035l-1.488-.255c-1.091-.17-1.941-.653-1.941-1.757,0-1.177,1.049-1.942,2.622-1.942,1.333,0,2.722.581,2.835,2.083h-.893c-.127-.85-.837-1.3-1.942-1.3-1.034,0-1.672.454-1.672,1.092,0,.5.354.879,1.29,1.021l1.3.227c.949.156,1.956.567,1.956,1.814,0,1.276-1.149,2.027-2.75,2.027-1.7,0-2.835-.751-3.047-2.24Z" transform="translate(-1053.037 -576.18)"/>
        <path id="패스_411" data-name="패스 411" class="cls-1" d="M1056.175,583.318c-1.815,0-2.934-.827-3.148-2.327l-.017-.115h1.106l.018.079c.2.9.9,1.353,2.07,1.353,1.023,0,1.684-.417,1.684-1.061,0-.5-.383-.835-1.048-.935l-1.491-.255c-1.343-.209-2.026-.834-2.026-1.857,0-1.222,1.094-2.044,2.724-2.044,1.341,0,2.815.571,2.936,2.177l.008.109H1057.9l-.013-.086c-.118-.785-.771-1.218-1.842-1.218-.939,0-1.571.4-1.571.991,0,.5.393.8,1.2.92l1.307.228c1.354.222,2.04.866,2.04,1.914C1059.026,582.483,1057.907,583.318,1056.175,583.318Z" transform="translate(-1053.01 -576.156)"/>
      </g>
    </g>
    <path id="패스_412" data-name="패스 412" class="cls-1" d="M986.792,546.162c-.529-.105-.791.6-.791.6a3.921,3.921,0,0,1-1.179,1.774,3.689,3.689,0,0,1-2.487.957,2.918,2.918,0,0,1-1.152-.2c-.043.159-.256.49-.02.492-.641.48-.349-.3-.329-.417a2,2,0,0,1,.229-.132c-.021-.011-.046-.019-.066-.032a1.693,1.693,0,0,1-.694-.765,3.164,3.164,0,0,1-.263-1.029c-.032-.366-.048-.742-.048-1.123V534.192a.486.486,0,0,1,.486-.486h5.259a.233.233,0,0,0,.233-.233v-1.4c0-.07,0-.479,0-.479a4.836,4.836,0,0,1-1.753.244h-2.787a1.424,1.424,0,0,1-1.437-1.422v-5.393a.233.233,0,0,0-.262-.23l-1.062.137a.229.229,0,0,0-.193.179,15.2,15.2,0,0,1-.9,2.781c.588-.408.773-.158.555.233-.494.351-.708.25-.657-.012a12.849,12.849,0,0,1-.879,1.646,5.35,5.35,0,0,1-3.383,2.478.227.227,0,0,0-.177.19l-.135,1.015a.233.233,0,0,0,.23.263h2.09c.173-.334,1.466-1.352,1.34-.8-.8.458-.689.546-1.169.8h.1a.486.486,0,0,1,.486.486v13.144a4.415,4.415,0,0,0,1.363,3.61,5.651,5.651,0,0,0,3.706,1.124,7.256,7.256,0,0,0,2.559-.406,4.824,4.824,0,0,0,1.793-1.148,5.635,5.635,0,0,0,1.148-1.77,12.022,12.022,0,0,0,.635-1.932S987.284,546.259,986.792,546.162Zm-10.582-12.138c.464-.991,1.1-.355,0,0Zm.611,3.9c.456-.321.368.773,0,0Zm-.582-5.95c.634-.619.672-.2,1.177-.59C977.457,531.765,976.18,532.448,976.238,531.977Zm1.439-1.3c.462-.323.365.78,0,0ZM978.085,549c.378.479-1.22.96,0,0Zm-.468-8.5c.348-.2.624-.277.753-.088C978.022,540.618,977.744,540.693,977.617,540.5Zm1.654,7.4a.524.524,0,0,1-.157-.72C979.875,546.594,980.281,547.267,979.271,547.9Z" transform="translate(-474.851 -438.893)"/>
    <path id="패스_413" data-name="패스 413" class="cls-2" d="M1030.06,550.355a.392.392,0,0,0-.377.024,19.619,19.619,0,0,1-1.711,1.376,7.953,7.953,0,0,1,1.171-1.062,2.284,2.284,0,0,1-.969.229q-1.627,0-1.626-1.77V538.775a11.494,11.494,0,0,0-.1-1.526c-.04.031-.074.058-.121.094-.166.132-.336.266-.505.4-.13-.118.275-.442.6-.648a5.2,5.2,0,0,0-1.559-3.244q-1.621-1.431-5.39-1.481a9.867,9.867,0,0,0-3.05.413,9.609,9.609,0,0,0-2.621,1.235,7.089,7.089,0,0,0-.794.641c.171-.041.006.211.045.31-.344.186-.212-.033-.191-.178a6.138,6.138,0,0,0-.811.973,3.939,3.939,0,0,0-.566,1.289c.209-.2.535-.436.488-.565.665-.339.06.466-.553.842a3.581,3.581,0,0,0-.041.537,2.1,2.1,0,0,0,.574,1.627,2.062,2.062,0,0,0,1.387.526c1.279,0,2.144-.534,2.2-1.817a2.231,2.231,0,0,0-.143-.837,1.145,1.145,0,0,0-.431-.6,2.979,2.979,0,0,1,.063-.6c-.364.3-.871.6-.743.365.156-.12.488-.324.776-.511a1.837,1.837,0,0,1,1.06-1.265,6.565,6.565,0,0,1,2.743-.526q3.656,0,3.657,4.687v1.244a3.746,3.746,0,0,1,.76-.426c.2.5-.594.482-.76.6a.547.547,0,0,1-.447.532l-.049.01a1.055,1.055,0,0,1-.516.255.288.288,0,0,1,.062-.161q-10.9,2.212-10.911,7.847a4.388,4.388,0,0,0,1.2,3.419,3.336,3.336,0,0,0,.481.332v-.106c.332-.05.44.165.336.3a6.7,6.7,0,0,0,2.914.552,10.54,10.54,0,0,0,6.831-2.7c.013-.271.17-.34.389-.327.032-.028.065-.052.1-.08.007.033.019.06.027.093.148.022.311.063.469.094.112.271-.09.31-.354.3a4.2,4.2,0,0,0,.914,1.661.815.815,0,0,1,.563-.512.756.756,0,0,1-.387.7,3.194,3.194,0,0,0,2.212.768q3.109,0,3.826-2.535S1030.3,550.476,1030.06,550.355Zm-18.107,1.623c-.421-.109.126-.277.394-.194C1012.317,551.923,1011.955,551.816,1011.953,551.978Zm1.573.388-1.049-.1a.351.351,0,0,1,.393-.389Q1013.721,551.677,1013.526,552.366Zm1.966-.388a9.344,9.344,0,0,1-.785-.681,5.49,5.49,0,0,0,.918-.194C1015.865,551.143,1015.7,551.829,1015.492,551.978Zm5.907-2.3a3.98,3.98,0,0,1-1.444,1.076,5.381,5.381,0,0,1-2.236.407q-3.031,0-3.032-3.109a4.259,4.259,0,0,1,.7-2.487,5.52,5.52,0,0,1,1.829-1.65,10.017,10.017,0,0,1,2.437-.961.171.171,0,0,1-.077-.124,4.531,4.531,0,0,1,1.1-.694c.1.179-.187.5-.494.691a19.868,19.868,0,0,1,2.113-.372.392.392,0,0,1,.434.389v3.725a8.92,8.92,0,0,1-.458,1.626A5.316,5.316,0,0,1,1021.4,549.679Zm1.023-.165a1.431,1.431,0,0,1,.987.292C1023.029,550.21,1022.422,550.065,1022.422,549.514Zm.394-.733a.564.564,0,0,1,.593-.293A.564.564,0,0,1,1022.816,548.781Zm2.369-2.49c.245.064.407.187.4.44C1025.338,546.666,1025.176,546.543,1025.185,546.291Z" transform="translate(-482.005 -440.327)"/>
    <g id="그룹_172" data-name="그룹 172" transform="translate(546.717 79.561)">
      <g id="그룹_171" data-name="그룹 171">
        <path id="패스_414" data-name="패스 414" class="cls-2" d="M1058.377,550.9a1.152,1.152,0,0,0,.161-.052C1058.533,550.819,1058.486,550.828,1058.377,550.9Z" transform="translate(-1037.758 -523.386)"/>
        <path id="패스_415" data-name="패스 415" class="cls-2" d="M1041.891,540.371a8.213,8.213,0,0,1,.477-1.4A1.122,1.122,0,0,0,1041.891,540.371Z" transform="translate(-1034.622 -521.138)"/>
        <path id="패스_416" data-name="패스 416" class="cls-2" d="M1054.461,535.783a9.805,9.805,0,0,0-1.865-3.132,8.748,8.748,0,0,0-2.823-2.1,8.208,8.208,0,0,0-3.538-.765,6.958,6.958,0,0,0-5.8,3.209.235.235,0,0,1-.421-.144V517.207a.235.235,0,0,0-.282-.23l-.837.17c-.482.446-1.526,1.213-1.587,1.255a10.266,10.266,0,0,1,1.345-1.206l-5.527,1.121a.234.234,0,0,0-.188.23v.875a.233.233,0,0,0,.228.229c1.888.094,2.833,1.38,2.833,4.152v19.465c0,1.1-.041,2.4-.12,3.567a26.7,26.7,0,0,1-.406,3.229.376.376,0,0,0,.259.443,1.007,1.007,0,0,0,.841-.109,6.485,6.485,0,0,0,2.076-2.209.236.236,0,0,1,.288-.133,2.309,2.309,0,0,1,.405-.379c.163.208-.042.414-.229.505a11,11,0,0,0,2.625,1.761,8.977,8.977,0,0,0,3.97.837,8.128,8.128,0,0,0,3.8-.909,9.144,9.144,0,0,0,2.989-2.487,11.852,11.852,0,0,0,1.8-3.289,1.169,1.169,0,0,1-.578.342,2.564,2.564,0,0,1-.757.86c.674-1.52.248-.439,1.347-1.235.041-.114.088-.221.127-.337a13.927,13.927,0,0,0,.694-4.424A9.163,9.163,0,0,0,1054.461,535.783Zm-18.406-15.207c-.5-.632.443-.787.84-.494A5.4,5.4,0,0,1,1036.055,520.576Zm1.862,3.931c.435.174-.2.65.239.823C1037.263,526.15,1036.918,525.028,1037.917,524.507Zm-.2,2.351c.747-.67,1.109-.452.832.018C1038.084,527.2,1037.831,527.151,1037.718,526.857Zm1.205,3.1q.114.669.229,1.336C1038.462,531.823,1038.533,530.268,1038.923,529.954Zm-.046,3.071c.818-.921.371.289,1.006-.285a2.705,2.705,0,0,0-.023,1.535C1038.915,534.535,1039.571,533.227,1038.878,533.025Zm8.453,16.784c-1.006.5.083-.533.341-.605C1047.814,549.163,1047.137,549.825,1047.331,549.809Zm2.779-1.681a2.4,2.4,0,0,1,.85-1.005A1.2,1.2,0,0,1,1050.109,548.128Zm.693-4.163a9.387,9.387,0,0,1-.98,2.7,5.905,5.905,0,0,1-1.7,1.937,4.016,4.016,0,0,1-2.415.742,5.063,5.063,0,0,1-3.181-.909,5.823,5.823,0,0,1-1.77-2.224c-.087-.19-.163-.383-.236-.577a1.488,1.488,0,0,1-.843.588c-.057-.281,1.152-.922.433-1.015a2.346,2.346,0,0,1,.223-.131,9.155,9.155,0,0,1-.342-1.614,21.778,21.778,0,0,1-.167-2.487v-1.483a15.607,15.607,0,0,1,.167-2.2c0-.015.006-.027.008-.041-.409-1.5-.735-3.9.685-2.446a4.723,4.723,0,0,1,1.555-1.889,4.518,4.518,0,0,1,2.7-.741,5.115,5.115,0,0,1,3.062.861,6.175,6.175,0,0,1,1.889,2.2c.024.046.042.095.066.141a4.463,4.463,0,0,1,.948-.586c-.253.736-.5,1.079-.735,1.045a10.074,10.074,0,0,1,.678,2.365,15.732,15.732,0,0,1,.264,2.778A14.73,14.73,0,0,1,1050.8,543.965Zm1.552-10.989c.377.478-1.219.96,0,0Zm2.192,6.7c-.228-.192-.055-.5.511-.913C1054.865,539.073,1055.279,539.211,1054.547,539.677Z" transform="translate(-1032.94 -516.972)"/>
      </g>
    </g>
    <path id="패스_417" data-name="패스 417" class="cls-1" d="M950.4,548.494c-.358-.1-.678-.18-.961-.254-.627.536-.81.283-1.071.167a2.583,2.583,0,0,1,.452-.323l-.155-.038a2.488,2.488,0,0,1-.789-.263c.081.6-1.249.949-1.513.686,1-1.1.67.142,1.513-.686a4.51,4.51,0,0,1-1.035-1.217.373.373,0,0,1-.028-.054l-7.477-18.74c-.268.011-.529.028-.476.268-.351-.048-.334-.944-.01-1.489l-3.36-8.42-.233-.574h-1.025a.267.267,0,0,0-.246.163l-.934,2.223a.678.678,0,0,1,.557.864c-.234-.236-.6-.377-.585-.8l-5.926,14.1a1.347,1.347,0,0,1,.226.115c.161.619,0,.775-.471.469l-4.276,10.174a6.579,6.579,0,0,1-1.65,2.484,3.848,3.848,0,0,1-2.129.932.264.264,0,0,0-.238.259v1.17c0,.02.017.032.021.051.089-.076.209-.057.367.079a.57.57,0,0,1-.062.137h.79a.687.687,0,0,1,.072-.375,1.634,1.634,0,0,1,.309.375h9a.266.266,0,0,0,.266-.267V548.57a.268.268,0,0,0-.266-.263q-3.943-.068-3.943-2.186a3.931,3.931,0,0,1,.1-.979c0-.115.009-.493.032-1.335.018-.014-.015,1.037-.028,1.312a1.742,1.742,0,0,1,.083-.236l.18-.547c0-.082.006-.343.022-.922.013-.01-.01.729-.019.911l1.443-4.392q.382-1.237,2.2-1.237h1.618v-.24c.286-.044.4.111.366.24h5.142q2.392,0,2.917,1.244l2.152,5.883a5.306,5.306,0,0,1,.335,1.435c-.007.191-.136.358-.407.5a4.3,4.3,0,0,1-1,.359,12.93,12.93,0,0,1-1.339.239q-.619.08-1.186.159a.264.264,0,0,0-.225.264v.936a.266.266,0,0,0,.266.267h12.572a.266.266,0,0,0,.266-.267v-.964A.273.273,0,0,0,950.4,548.494Zm-31.133.756c.1.361-1.312.127,0,0Zm.8,0c-.487.44-.54-.362,0,0Zm.48-.593c.007.024-.967-.07,0,0Zm.162.713c.335-.049.425.083.641.119C921.4,549.7,920.454,549.7,920.712,549.369Zm16.173-21.915c.4.107.807.441.395.733C936.848,528.165,936.855,527.818,936.885,527.454Zm-.4-4.455c.148-.022-.116.892,0,0ZM934,522.272c0,.688-.932,0,0,0Zm-3.65,15.7c-.422-.109.125-.277.393-.195C930.716,537.915,930.355,537.809,930.353,537.97Zm1.573.388-1.049-.1a.351.351,0,0,1,.393-.389Q932.121,537.669,931.927,538.358Zm1.966-.388a9.378,9.378,0,0,1-.786-.681,5.476,5.476,0,0,0,.918-.194C934.265,537.135,934.1,537.821,933.892,537.97Zm2.505-1.282h-6.026q-1.77,0-1.77-.717a4.724,4.724,0,0,1,.526-1.626l2.444-5.832a1.516,1.516,0,0,1-1.007-.179q.049-1.1,1.183-.439a1.175,1.175,0,0,1,.019.15l1.314-3.135a.266.266,0,0,1,.494.006l1.045,2.694a1.765,1.765,0,0,1,.684.138,2.579,2.579,0,0,1-.488.368l2.489,6.42a8.008,8.008,0,0,1,.526,1.578Q937.833,536.686,936.4,536.687Zm5.144.175c.254-.055.067-.358,0-.293C942.056,536.061,942.283,536.989,941.542,536.862Zm.987,6.3h.593C943.412,543.588,942.24,543.588,942.529,543.161Zm1.867,2.809c-.1-.348.681-.256.752-.086A1.55,1.55,0,0,1,944.4,545.969Z" transform="translate(-464.559 -437.522)"/>
    <path id="패스_418" data-name="패스 418" class="cls-1" d="M969.98,548.434q-3.365-.073-3.365-2.005v-1.064c-.263.16-.415.126-.486-.053.353-.368.412-.211.486-.079V526.776a.237.237,0,0,1-.025.122c-.608.11-.38-.4-.987-.292.134-.29.944-.184,1.012.129v-9.489a.271.271,0,0,0-.32-.266l-3.448.643c-.234.25-.56.525-.809.78-.211-.225-.032-.45.28-.681l-3.182.593a.27.27,0,0,0-.221.266v.8a.272.272,0,0,0,.269.267q3.413.084,3.413,2.34v9.127a2.332,2.332,0,0,1,.634-.117c.073.25-.458.268-.634.207v12.44a.386.386,0,0,0,.263.3,1.709,1.709,0,0,1-.263.145v2.147q0,2.107-2.985,2.2a.272.272,0,0,0-.268.266v.9a.271.271,0,0,0,.271.271h10.364a.271.271,0,0,0,.271-.271v-.9A.272.272,0,0,0,969.98,548.434Zm-3.55-12.571c.048-.036-.136,4.911,0,0Zm-.63-12.042a3.806,3.806,0,0,1-1.975-.146C964.035,523.176,965.568,523.637,965.8,523.822Zm-.394,2.637c.008.032-1.194-.086,0,0ZM963.373,543.2c.23-.55.961-.443,0,0Zm-.075,1.3c-.061-.181.192-.452.288-.678C964.176,543.527,963.709,544.234,963.3,544.5Zm1.317-14.381c-.083.636-1.147-.154,0,0Zm0-2.343c.07-.193.347-.231.394-.44C965.5,527.4,965.021,527.905,964.615,527.778Zm1.166,14.656-.622.6C964.72,542.481,965.78,542.438,965.781,542.434Zm.044.755c-.2.2-.41.4-.622.6C964.882,543.384,965.555,542.9,965.824,543.189Zm-.372,2.656c-.494.243-.087-.477.457-.811C966.291,545.153,965.447,545.619,965.452,545.845Zm-.245-15.286c-.2-.492.614-.228.987-.293C966.165,530.587,965.7,530.582,965.208,530.56Z" transform="translate(-472.202 -437.412)"/>
    <path id="패스_419" data-name="패스 419" class="cls-2" d="M1005.135,546.162c-.529-.105-.791.6-.791.6a3.909,3.909,0,0,1-1.179,1.774,3.689,3.689,0,0,1-2.487.957,2.611,2.611,0,0,1-1.339-.287,1.692,1.692,0,0,1-.694-.765,3.213,3.213,0,0,1-.128-.367c-.082.067-.167.135-.247.2a.746.746,0,0,1,.188-.417,3.215,3.215,0,0,1-.075-.448c-.032-.366-.048-.742-.048-1.123V535.249a.28.28,0,0,1-.408.052,1.466,1.466,0,0,0,.307-.414.245.245,0,0,1,.1-.033v-.661a.486.486,0,0,1,.486-.486h2.068c.5-.448,1.434-1.209,1.481-1.252.279-.014-.74.788-1.353,1.252h3.064a.233.233,0,0,0,.232-.233v-1.4c0-.07,0-.479,0-.479a4.834,4.834,0,0,1-1.753.244h-2.788a1.431,1.431,0,0,1-.851-.277,1.2,1.2,0,0,0-.3.165c-.084-.04,0-.165.139-.3a1.42,1.42,0,0,1-.43-1.013v-5.393a.233.233,0,0,0-.262-.23l-1.062.137a.229.229,0,0,0-.193.179,14.115,14.115,0,0,1-1.879,4.648,6.7,6.7,0,0,1-.59.781,2.836,2.836,0,0,0,1.124-.211c.4.293-.776.431-1.363.469a5.081,5.081,0,0,1-2.554,1.438.227.227,0,0,0-.177.19l-.135,1.015a.233.233,0,0,0,.23.263h2.357a.481.481,0,0,1,.113.023c.008-.318.019-.723.033-1.247.018-.013,0,.653-.014,1.252a.474.474,0,0,1,.34.39c.012-.156.027-.333.046-.554a3.489,3.489,0,0,1-.032.8V542.1a4.6,4.6,0,0,0,1.068-1.226c.661.088-.563.981-1.068,1.3v.777c.21-.132.463-.269.713-.444.127.2-.3.605-.713.869v3.961a4.418,4.418,0,0,0,1.363,3.61,4.554,4.554,0,0,0,1.549.819c.237-.19.527-.327.537-.141,0,.062-.06.148-.149.235a7.412,7.412,0,0,0,1.77.211,7.255,7.255,0,0,0,2.559-.406,4.823,4.823,0,0,0,1.793-1.148,5.633,5.633,0,0,0,1.148-1.77,12.094,12.094,0,0,0,.635-1.932S1005.627,546.259,1005.135,546.162Zm-7.915-18.618c.51-.28.186.16.247.314C996.955,528.137,997.28,527.7,997.22,527.544Zm-1.857,14.866c.315-.514.149-.892.856-1.518Q996.407,541.475,995.363,542.41Zm1.034-12.471c-.5-.638.371-.7.849-1.005Zm1.568,16.381c-.9.517-.491-.623,0,0Z" transform="translate(-478.325 -438.893)"/>
  </g>
</svg>
