<svg xmlns="http://www.w3.org/2000/svg" width="70.006" height="35.574" viewBox="0 0 70.006 35.574">
  <defs>
    <style>
      .cls-1 {
        opacity: 0.4;
      }

      .cls-2 {
        fill: #5c5c5c;
      }

      .cls-3 {
        fill: #8e7958;
      }
    </style>
  </defs>
  <g id="그룹_216" data-name="그룹 216" class="cls-1" transform="translate(-454 -79.561)">
    <g id="그룹_170" data-name="그룹 170" transform="translate(454.93 106.745)">
      <g id="그룹_156" data-name="그룹 156" transform="translate(0 0.259)">
        <path id="패스_386" data-name="패스 386" class="cls-2" d="M921.18,575.526h3.029v.569H921.18v2.485h-.612v-5.867h4v.561H921.18Z" transform="translate(-920.506 -572.651)"/>
        <path id="패스_387" data-name="패스 387" class="cls-2" d="M921.179,578.579h-.736v-5.991h4.127v.684h-3.391V575.4h3.029v.693h-3.029Z" transform="translate(-920.443 -572.588)"/>
      </g>
      <g id="그룹_157" data-name="그룹 157" transform="translate(4.41 2.036)">
        <path id="패스_388" data-name="패스 388" class="cls-2" d="M931.564,580.534a2.171,2.171,0,1,1,2.176-2.184A2.161,2.161,0,0,1,931.564,580.534Zm0-3.676a1.463,1.463,0,0,0-1.466,1.492,1.467,1.467,0,1,0,2.931,0A1.463,1.463,0,0,0,931.564,576.858Z" transform="translate(-929.38 -576.191)"/>
      </g>
      <g id="그룹_158" data-name="그룹 158" transform="translate(9.458 2.036)">
        <path id="패스_389" data-name="패스 389" class="cls-2" d="M940.323,577.11a1.9,1.9,0,0,1,1.562-.794v.561a1.843,1.843,0,0,0-1.562.924v2.605h-.587V576.42h.587Z" transform="translate(-939.674 -576.254)"/>
        <path id="패스_390" data-name="패스 390" class="cls-2" d="M940.321,580.4h-.71v-4.109h.71v.577a1.956,1.956,0,0,1,1.5-.68h.062v.682l-.06,0a1.785,1.785,0,0,0-1.5.879Z" transform="translate(-939.611 -576.191)"/>
      </g>
      <g id="그룹_159" data-name="그룹 159" transform="translate(13.755 2.019)">
        <path id="패스_391" data-name="패스 391" class="cls-2" d="M949.015,579.154c.121.543.544.871,1.32.871.647,0,1.087-.276,1.087-.708,0-.354-.285-.569-.69-.63l-.906-.155c-.664-.1-1.182-.4-1.182-1.07,0-.716.638-1.182,1.6-1.182.811,0,1.657.354,1.726,1.268h-.544c-.077-.518-.509-.794-1.182-.794-.63,0-1.018.276-1.018.665,0,.3.216.535.786.621l.793.138c.578.095,1.191.345,1.191,1.1,0,.777-.7,1.234-1.674,1.234-1.036,0-1.726-.457-1.855-1.363Z" transform="translate(-948.392 -576.219)"/>
        <path id="패스_392" data-name="패스 392" class="cls-2" d="M950.245,580.516c-1.105,0-1.786-.5-1.916-1.417l-.01-.07h.673l.01.048c.121.547.545.824,1.26.824.623,0,1.025-.254,1.025-.646,0-.3-.232-.508-.638-.569l-.907-.155c-.818-.127-1.234-.508-1.234-1.13,0-.744.667-1.244,1.658-1.244.816,0,1.714.348,1.787,1.325l.005.066H951.3l-.008-.052c-.072-.478-.47-.742-1.122-.742-.572,0-.956.242-.956.6,0,.3.24.486.733.56l.8.139c.823.135,1.241.527,1.241,1.165C951.981,580.007,951.3,580.516,950.245,580.516Z" transform="translate(-948.319 -576.156)"/>
      </g>
      <g id="그룹_160" data-name="그룹 160" transform="translate(18.149 2.036)">
        <path id="패스_393" data-name="패스 393" class="cls-2" d="M961.438,578.413a2.072,2.072,0,0,1-2.062,2.106,2.013,2.013,0,0,1-1.441-.561v2.589h-.587V576.42h.587v.457a2.012,2.012,0,0,1,1.441-.561A2.069,2.069,0,0,1,961.438,578.413Zm-.587,0a1.562,1.562,0,0,0-1.545-1.579,1.6,1.6,0,0,0-1.372.742v1.683a1.6,1.6,0,0,0,1.372.742A1.564,1.564,0,0,0,960.851,578.413Z" transform="translate(-957.286 -576.254)"/>
        <path id="패스_394" data-name="패스 394" class="cls-2" d="M957.933,582.544h-.71v-6.249h.71v.38a2.089,2.089,0,0,1,1.379-.483,2.163,2.163,0,0,1,0,4.326,2.094,2.094,0,0,1-1.379-.483Zm0-3.368a1.532,1.532,0,0,0,1.31.7,1.522,1.522,0,0,0,0-3.044,1.532,1.532,0,0,0-1.31.7Z" transform="translate(-957.223 -576.191)"/>
      </g>
      <g id="그룹_161" data-name="그룹 161" transform="translate(22.852 2.036)">
        <path id="패스_395" data-name="패스 395" class="cls-2" d="M968.878,580.516a2.163,2.163,0,0,1,0-4.326,2.12,2.12,0,0,1,1.379.477v-.373h.71V580.4h-.71v-.364A2.121,2.121,0,0,1,968.878,580.516Zm.077-3.685a1.522,1.522,0,0,0,0,3.044,1.545,1.545,0,0,0,1.3-.683v-1.678A1.544,1.544,0,0,0,968.956,576.832Z" transform="translate(-966.754 -576.191)"/>
      </g>
      <g id="그룹_162" data-name="그룹 162" transform="translate(27.762 2.036)">
        <path id="패스_396" data-name="패스 396" class="cls-2" d="M980.17,579.077h.613a1.819,1.819,0,0,1-1.873,1.441,2.1,2.1,0,0,1,0-4.2,1.819,1.819,0,0,1,1.873,1.441h-.613a1.21,1.21,0,0,0-1.26-.9,1.559,1.559,0,0,0,0,3.115A1.21,1.21,0,0,0,980.17,579.077Z" transform="translate(-976.769 -576.254)"/>
        <path id="패스_397" data-name="패스 397" class="cls-2" d="M978.847,580.516a2.163,2.163,0,0,1,0-4.326,1.876,1.876,0,0,1,1.933,1.491l.014.073h-.737l-.011-.047a1.144,1.144,0,0,0-1.2-.85,1.5,1.5,0,0,0,0,2.992,1.144,1.144,0,0,0,1.2-.85l.011-.048h.737l-.014.073A1.876,1.876,0,0,1,978.847,580.516Z" transform="translate(-976.706 -576.191)"/>
      </g>
      <g id="그룹_163" data-name="그룹 163" transform="translate(32.319 2.036)">
        <path id="패스_398" data-name="패스 398" class="cls-2" d="M990.069,578.646l-.035-.017v.017H986.66a1.459,1.459,0,0,0,1.492,1.363,1.21,1.21,0,0,0,1.157-.613h.639a1.812,1.812,0,0,1-1.812,1.122,2.1,2.1,0,0,1,0-4.2,1.948,1.948,0,0,1,1.942,2.079A2.265,2.265,0,0,1,990.069,578.646Zm-3.408-.457h2.821a1.355,1.355,0,0,0-1.363-1.363A1.451,1.451,0,0,0,986.66,578.188Z" transform="translate(-986.003 -576.254)"/>
        <path id="패스_399" data-name="패스 399" class="cls-2" d="M988.073,580.516a2.163,2.163,0,0,1,0-4.326,2.018,2.018,0,0,1,2,2.141,2.305,2.305,0,0,1-.009.258l-.009.087-.066-.033h-3.324a1.383,1.383,0,0,0,1.422,1.24,1.157,1.157,0,0,0,1.1-.577l.017-.036h.764l-.028.082A1.883,1.883,0,0,1,988.073,580.516Zm-1.4-2.453h2.682a1.287,1.287,0,0,0-1.295-1.24A1.384,1.384,0,0,0,986.668,578.063Z" transform="translate(-985.94 -576.191)"/>
      </g>
      <g id="그룹_164" data-name="그룹 164" transform="translate(39.05 2.01)">
        <path id="패스_400" data-name="패스 400" class="cls-2" d="M1003.468,578.084v2.295h-.587v-2.269a1.171,1.171,0,0,0-1.217-1.3,1.728,1.728,0,0,0-1.372.742v2.83h-.587v-3.986h.587v.474a2.037,2.037,0,0,1,1.475-.6A1.661,1.661,0,0,1,1003.468,578.084Z" transform="translate(-999.644 -576.201)"/>
        <path id="패스_401" data-name="패스 401" class="cls-2" d="M1003.467,580.377h-.71v-2.331a1.113,1.113,0,0,0-1.155-1.241,1.663,1.663,0,0,0-1.31.7v2.872h-.711v-4.109h.711v.392a2.113,2.113,0,0,1,1.414-.522,1.727,1.727,0,0,1,1.762,1.882Z" transform="translate(-999.581 -576.138)"/>
      </g>
      <g id="그룹_165" data-name="그룹 165" transform="translate(43.451 2.036)">
        <path id="패스_402" data-name="패스 402" class="cls-2" d="M1012.863,578.413a2.118,2.118,0,1,1-2.114-2.1A2.087,2.087,0,0,1,1012.863,578.413Zm-.586,0a1.529,1.529,0,1,0-1.528,1.588A1.525,1.525,0,0,0,1012.276,578.413Z" transform="translate(-1008.564 -576.254)"/>
        <path id="패스_403" data-name="패스 403" class="cls-2" d="M1010.685,580.534a2.171,2.171,0,1,1,2.176-2.184A2.161,2.161,0,0,1,1010.685,580.534Zm0-3.676a1.463,1.463,0,0,0-1.465,1.492,1.467,1.467,0,1,0,2.932,0A1.463,1.463,0,0,0,1010.685,576.858Z" transform="translate(-1008.501 -576.191)"/>
      </g>
      <g id="그룹_166" data-name="그룹 166" transform="translate(48.5 2.01)">
        <path id="패스_404" data-name="패스 404" class="cls-2" d="M1025.372,578.084v2.295h-.587v-2.269c0-.828-.432-1.3-1.148-1.3a1.451,1.451,0,0,0-1.277.768,2.336,2.336,0,0,1,.052.509v2.295h-.587v-2.269c0-.828-.44-1.3-1.148-1.3a1.466,1.466,0,0,0-1.234.725v2.847h-.587v-3.986h.587v.457a1.658,1.658,0,0,1,1.337-.587,1.535,1.535,0,0,1,1.363.742,1.932,1.932,0,0,1,1.6-.742A1.633,1.633,0,0,1,1025.372,578.084Z" transform="translate(-1018.796 -576.201)"/>
        <path id="패스_405" data-name="패스 405" class="cls-2" d="M1025.371,580.377h-.71v-2.331c0-.789-.4-1.241-1.086-1.241a1.374,1.374,0,0,0-1.211.717,2.407,2.407,0,0,1,.048.5v2.357h-.71v-2.331c0-.777-.406-1.241-1.086-1.241a1.409,1.409,0,0,0-1.172.682v2.891h-.71v-4.109h.71v.364a1.723,1.723,0,0,1,1.276-.494,1.611,1.611,0,0,1,1.371.7,2,2,0,0,1,1.589-.7,1.7,1.7,0,0,1,1.692,1.882Z" transform="translate(-1018.733 -576.138)"/>
      </g>
      <g id="그룹_167" data-name="그룹 167" transform="translate(55.663 2.036)">
        <path id="패스_406" data-name="패스 406" class="cls-2" d="M1037.464,580.406h-.587v-.44a2.03,2.03,0,0,1-1.441.552,2.1,2.1,0,0,1,0-4.2,2.028,2.028,0,0,1,1.441.552v-.448h.587Zm-.587-1.13v-1.717a1.614,1.614,0,0,0-1.363-.725,1.584,1.584,0,0,0,0,3.167A1.615,1.615,0,0,0,1036.876,579.276Z" transform="translate(-1033.311 -576.254)"/>
        <path id="패스_407" data-name="패스 407" class="cls-2" d="M1035.372,580.516a2.163,2.163,0,0,1,0-4.326,2.119,2.119,0,0,1,1.379.477v-.373h.71V580.4h-.71v-.364A2.121,2.121,0,0,1,1035.372,580.516Zm.077-3.685a1.522,1.522,0,0,0,0,3.044,1.545,1.545,0,0,0,1.3-.683v-1.678A1.544,1.544,0,0,0,1035.45,576.832Z" transform="translate(-1033.248 -576.191)"/>
      </g>
      <g id="그룹_168" data-name="그룹 168" transform="translate(60.573)">
        <path id="패스_408" data-name="패스 408" class="cls-2" d="M1047.415,578.315h-.587v-.44a2.024,2.024,0,0,1-1.441.543,2.1,2.1,0,0,1,0-4.193,2.024,2.024,0,0,1,1.441.543v-2.58h.587Zm-.587-1.139v-1.708a1.6,1.6,0,0,0-1.363-.734,1.584,1.584,0,0,0,0,3.167A1.614,1.614,0,0,0,1046.828,577.176Z" transform="translate(-1043.263 -572.127)"/>
        <path id="패스_409" data-name="패스 409" class="cls-2" d="M1045.324,578.417a2.159,2.159,0,0,1,0-4.317,2.1,2.1,0,0,1,1.379.468v-2.5h.711v6.249h-.711v-.364A2.1,2.1,0,0,1,1045.324,578.417Zm.078-3.685a1.522,1.522,0,0,0,0,3.044,1.543,1.543,0,0,0,1.3-.682v-1.67A1.532,1.532,0,0,0,1045.4,574.732Z" transform="translate(-1043.2 -572.064)"/>
      </g>
      <g id="그룹_169" data-name="그룹 169" transform="translate(65.414 2.019)">
        <path id="패스_410" data-name="패스 410" class="cls-2" d="M1053.707,579.154c.121.543.543.871,1.321.871.647,0,1.087-.276,1.087-.708,0-.354-.285-.569-.691-.63l-.906-.155c-.664-.1-1.182-.4-1.182-1.07,0-.716.639-1.182,1.6-1.182.811,0,1.657.354,1.726,1.268h-.543c-.077-.518-.509-.794-1.182-.794-.63,0-1.018.276-1.018.665,0,.3.215.535.785.621l.794.138c.578.095,1.191.345,1.191,1.1,0,.777-.7,1.234-1.674,1.234-1.035,0-1.726-.457-1.855-1.363Z" transform="translate(-1053.083 -576.219)"/>
        <path id="패스_411" data-name="패스 411" class="cls-2" d="M1054.936,580.516c-1.1,0-1.786-.5-1.916-1.417l-.01-.07h.673l.011.048c.121.546.545.824,1.26.824.623,0,1.025-.254,1.025-.646,0-.3-.233-.508-.638-.569l-.907-.155c-.818-.127-1.233-.508-1.233-1.13,0-.744.666-1.244,1.658-1.244.816,0,1.714.348,1.787,1.325l.005.066h-.663l-.008-.052c-.072-.478-.469-.742-1.121-.742-.572,0-.956.242-.956.6,0,.3.239.486.732.56l.8.139c.824.135,1.242.527,1.242,1.165C1056.672,580.007,1055.991,580.516,1054.936,580.516Z" transform="translate(-1053.01 -576.156)"/>
      </g>
    </g>
    <path id="패스_412" data-name="패스 412" class="cls-2" d="M981.355,537.8c-.322-.064-.482.363-.482.363a2.387,2.387,0,0,1-.718,1.08,2.246,2.246,0,0,1-1.514.582,1.776,1.776,0,0,1-.7-.12c-.026.1-.156.3-.012.3-.39.292-.213-.18-.2-.254a1.212,1.212,0,0,1,.139-.08c-.013-.007-.028-.012-.04-.019a1.03,1.03,0,0,1-.422-.466,1.927,1.927,0,0,1-.16-.626c-.019-.223-.029-.451-.029-.684v-7.361a.3.3,0,0,1,.3-.3h3.2a.142.142,0,0,0,.142-.142v-.851c0-.043,0-.292,0-.292a2.944,2.944,0,0,1-1.067.149h-1.7a.867.867,0,0,1-.875-.866v-3.283a.142.142,0,0,0-.159-.14l-.646.083a.14.14,0,0,0-.117.109,9.248,9.248,0,0,1-.547,1.693c.358-.248.471-.1.338.142-.3.214-.431.152-.4-.007a7.83,7.83,0,0,1-.535,1,3.257,3.257,0,0,1-2.06,1.508.138.138,0,0,0-.108.115l-.082.618a.142.142,0,0,0,.14.16h1.272c.106-.2.893-.823.816-.489-.486.279-.419.333-.712.489h.059a.3.3,0,0,1,.3.3v8a2.687,2.687,0,0,0,.83,2.2,3.44,3.44,0,0,0,2.256.684,4.418,4.418,0,0,0,1.558-.247,2.937,2.937,0,0,0,1.091-.7,3.43,3.43,0,0,0,.7-1.077,7.317,7.317,0,0,0,.386-1.176S981.655,537.861,981.355,537.8Zm-6.442-7.389c.283-.6.671-.216,0,0Zm.372,2.375c.277-.2.224.471,0,0Zm-.354-3.622c.386-.377.409-.119.717-.359C975.673,529.037,974.9,529.453,974.931,529.166Zm.876-.792c.281-.2.222.475,0,0Zm.248,11.155c.23.292-.743.584,0,0Zm-.285-5.172c.212-.122.38-.169.458-.054C976.017,534.426,975.848,534.472,975.77,534.357Zm1.007,4.5a.319.319,0,0,1-.1-.438C977.145,538.064,977.392,538.474,976.777,538.859Z" transform="translate(-492.085 -441.374)"/>
    <path id="패스_413" data-name="패스 413" class="cls-3" d="M1022.473,543.317a.239.239,0,0,0-.229.015,11.93,11.93,0,0,1-1.042.838,4.847,4.847,0,0,1,.713-.646,1.391,1.391,0,0,1-.59.139q-.99,0-.99-1.077v-6.318a6.994,6.994,0,0,0-.059-.929l-.074.057-.307.242c-.079-.072.167-.269.368-.394a3.167,3.167,0,0,0-.949-1.975,5.039,5.039,0,0,0-3.281-.9,6.006,6.006,0,0,0-1.856.252,5.849,5.849,0,0,0-1.6.751,4.312,4.312,0,0,0-.483.39c.1-.025,0,.128.028.189-.209.113-.129-.02-.116-.109a3.732,3.732,0,0,0-.493.592,2.4,2.4,0,0,0-.344.785c.127-.122.326-.266.3-.344.4-.206.036.284-.337.513a2.178,2.178,0,0,0-.025.327,1.28,1.28,0,0,0,.349.99,1.255,1.255,0,0,0,.844.32c.779,0,1.305-.325,1.339-1.106a1.358,1.358,0,0,0-.087-.51.7.7,0,0,0-.262-.364,1.814,1.814,0,0,1,.039-.363c-.222.186-.53.368-.453.222.1-.073.3-.2.472-.311a1.118,1.118,0,0,1,.645-.77,4,4,0,0,1,1.67-.32q2.226,0,2.226,2.853v.757a2.281,2.281,0,0,1,.463-.26c.123.3-.362.293-.463.365a.333.333,0,0,1-.272.324l-.03.006a.642.642,0,0,1-.314.155.175.175,0,0,1,.038-.1q-6.636,1.346-6.642,4.777a2.671,2.671,0,0,0,.728,2.081,2.022,2.022,0,0,0,.293.2V544.6c.2-.031.268.1.2.182a4.076,4.076,0,0,0,1.774.336,6.416,6.416,0,0,0,4.158-1.644c.008-.165.1-.207.237-.2.019-.017.039-.032.059-.049,0,.02.011.037.016.057.09.013.19.038.286.057.068.165-.055.189-.216.185a2.554,2.554,0,0,0,.556,1.011.5.5,0,0,1,.342-.312.46.46,0,0,1-.235.426,1.944,1.944,0,0,0,1.347.468,2.122,2.122,0,0,0,2.329-1.543S1022.619,543.39,1022.473,543.317Zm-11.022.988c-.257-.067.076-.169.24-.118C1011.673,544.272,1011.452,544.206,1011.451,544.3Zm.958.236-.638-.059a.214.214,0,0,1,.239-.237Q1012.527,544.122,1012.409,544.541Zm1.2-.236a5.7,5.7,0,0,1-.478-.414,3.346,3.346,0,0,0,.559-.118C1013.832,543.8,1013.734,544.214,1013.605,544.3Zm3.6-1.4a2.422,2.422,0,0,1-.879.655,3.276,3.276,0,0,1-1.361.248,1.652,1.652,0,0,1-1.846-1.892,2.593,2.593,0,0,1,.424-1.514,3.361,3.361,0,0,1,1.113-1,6.1,6.1,0,0,1,1.484-.585.1.1,0,0,1-.047-.075,2.758,2.758,0,0,1,.667-.422c.061.109-.114.3-.3.421a12.09,12.09,0,0,1,1.286-.227.238.238,0,0,1,.264.237v2.268a5.431,5.431,0,0,1-.279.99A3.237,3.237,0,0,1,1017.2,542.905Zm.623-.1a.871.871,0,0,1,.6.178C1018.193,543.229,1017.824,543.14,1017.824,542.8Zm.24-.446a.343.343,0,0,1,.361-.179A.343.343,0,0,1,1018.064,542.359Zm1.442-1.516c.149.039.248.114.241.268C1019.6,541.071,1019.5,541,1019.506,540.843Z" transform="translate(-511.219 -445.21)"/>
    <g id="그룹_172" data-name="그룹 172" transform="translate(510.44 79.561)">
      <g id="그룹_171" data-name="그룹 171">
        <path id="패스_414" data-name="패스 414" class="cls-3" d="M1058.377,550.876a.694.694,0,0,0,.1-.032C1058.472,550.825,1058.443,550.83,1058.377,550.876Z" transform="translate(-1045.825 -534.125)"/>
        <path id="패스_415" data-name="패스 415" class="cls-3" d="M1041.863,539.823a5.009,5.009,0,0,1,.291-.854A.683.683,0,0,0,1041.863,539.823Z" transform="translate(-1037.438 -528.115)"/>
        <path id="패스_416" data-name="패스 416" class="cls-3" d="M1046.04,528.423a5.969,5.969,0,0,0-1.135-1.907,5.324,5.324,0,0,0-1.718-1.281,5,5,0,0,0-2.154-.466,4.236,4.236,0,0,0-3.529,1.954.143.143,0,0,1-.256-.088v-9.52a.143.143,0,0,0-.172-.14l-.51.1c-.294.271-.929.739-.966.764a6.251,6.251,0,0,1,.819-.734l-3.365.682a.143.143,0,0,0-.115.14v.532a.142.142,0,0,0,.139.14c1.149.057,1.725.84,1.725,2.527v11.849c0,.672-.025,1.463-.073,2.171a16.258,16.258,0,0,1-.247,1.965.229.229,0,0,0,.158.27.613.613,0,0,0,.512-.066,3.949,3.949,0,0,0,1.264-1.345.143.143,0,0,1,.175-.081,1.4,1.4,0,0,1,.247-.231c.1.126-.026.252-.14.307a6.7,6.7,0,0,0,1.6,1.072,5.466,5.466,0,0,0,2.417.51,4.948,4.948,0,0,0,2.314-.553,5.568,5.568,0,0,0,1.819-1.514,7.213,7.213,0,0,0,1.094-2,.712.712,0,0,1-.352.208,1.56,1.56,0,0,1-.461.524c.411-.925.151-.267.82-.752.025-.069.054-.135.078-.205a8.476,8.476,0,0,0,.422-2.693A5.577,5.577,0,0,0,1046.04,528.423Zm-11.2-9.257c-.3-.385.27-.479.512-.3A3.28,3.28,0,0,1,1034.836,519.166Zm1.133,2.393c.265.106-.119.4.146.5C1035.572,522.559,1035.361,521.876,1035.97,521.559Zm-.121,1.431c.455-.408.675-.275.507.011C1036.071,523.2,1035.917,523.168,1035.848,522.99Zm.734,1.885q.07.407.14.813C1036.3,526.012,1036.345,525.065,1036.582,524.875Zm-.028,1.87c.5-.561.226.176.612-.174a1.648,1.648,0,0,0-.014.935C1036.577,527.663,1036.976,526.867,1036.554,526.744Zm5.146,10.217c-.612.307.051-.324.208-.369C1041.994,536.568,1041.582,536.971,1041.7,536.961Zm1.692-1.023a1.457,1.457,0,0,1,.517-.612A.729.729,0,0,1,1043.391,535.938Zm.422-2.534a5.713,5.713,0,0,1-.6,1.645,3.6,3.6,0,0,1-1.034,1.179,2.445,2.445,0,0,1-1.47.451,3.082,3.082,0,0,1-1.936-.553,3.543,3.543,0,0,1-1.077-1.354c-.053-.116-.1-.233-.144-.351a.907.907,0,0,1-.513.358c-.035-.171.7-.562.263-.618a1.438,1.438,0,0,1,.136-.08,5.571,5.571,0,0,1-.208-.982,13.26,13.26,0,0,1-.1-1.514v-.9a9.5,9.5,0,0,1,.1-1.341c0-.009,0-.016,0-.025-.249-.911-.448-2.373.417-1.489a2.875,2.875,0,0,1,.947-1.15,2.75,2.75,0,0,1,1.645-.451,3.114,3.114,0,0,1,1.864.524,3.759,3.759,0,0,1,1.15,1.339c.014.028.026.058.04.086a2.712,2.712,0,0,1,.577-.357c-.154.448-.3.657-.448.636a6.134,6.134,0,0,1,.412,1.44,9.576,9.576,0,0,1,.16,1.691A8.963,8.963,0,0,1,1043.813,533.4Zm.945-6.689c.229.291-.742.584,0,0Zm1.334,4.079c-.139-.117-.034-.3.311-.556C1046.286,530.426,1046.539,530.51,1046.093,530.793Z" transform="translate(-1032.94 -516.972)"/>
      </g>
    </g>
    <path id="패스_417" data-name="패스 417" class="cls-2" d="M937.941,536.389l-.585-.154c-.381.326-.493.172-.652.1a1.571,1.571,0,0,1,.275-.2l-.094-.023a1.516,1.516,0,0,1-.48-.16c.049.363-.76.578-.921.417.606-.67.408.086.921-.417a2.747,2.747,0,0,1-.63-.741.221.221,0,0,1-.017-.033l-4.551-11.408c-.163.007-.322.017-.29.163-.214-.029-.2-.575-.006-.906l-2.045-5.125-.142-.349H928.1a.162.162,0,0,0-.15.1l-.568,1.353a.413.413,0,0,1,.339.526c-.142-.144-.363-.229-.356-.484l-3.608,8.584a.816.816,0,0,1,.138.07c.1.377,0,.472-.287.286l-2.6,6.193a4.005,4.005,0,0,1-1,1.512,2.342,2.342,0,0,1-1.3.568.161.161,0,0,0-.145.158v.712c0,.012.01.02.013.031.054-.046.127-.035.224.048a.348.348,0,0,1-.038.083h.481a.418.418,0,0,1,.044-.228.993.993,0,0,1,.188.228h5.477a.162.162,0,0,0,.162-.162v-.7a.163.163,0,0,0-.162-.16q-2.4-.041-2.4-1.331a2.394,2.394,0,0,1,.063-.6c0-.07.005-.3.02-.813.011-.008-.009.631-.017.8a1.059,1.059,0,0,1,.051-.144l.109-.333c0-.05,0-.209.013-.561.008-.006-.006.444-.011.555l.878-2.673q.232-.753,1.339-.753h.985v-.146c.174-.027.246.068.223.146h3.13q1.456,0,1.776.757l1.31,3.581a3.229,3.229,0,0,1,.2.873c0,.117-.083.218-.248.305a2.618,2.618,0,0,1-.611.219,7.89,7.89,0,0,1-.815.146q-.377.049-.722.1a.16.16,0,0,0-.137.161v.57a.162.162,0,0,0,.162.162H937.9a.162.162,0,0,0,.162-.162v-.587A.166.166,0,0,0,937.941,536.389Zm-18.952.46c.064.22-.8.078,0,0Zm.489,0c-.3.268-.329-.22,0,0Zm.292-.361c0,.015-.589-.043,0,0Zm.1.434c.2-.03.259.05.39.073C920.29,537.123,919.713,537.124,919.87,536.922Zm9.845-13.341c.244.065.491.268.24.446C929.692,524.015,929.7,523.8,929.715,523.581Zm-.245-2.712c.09-.013-.071.543,0,0Zm-1.509-.442c0,.419-.568,0,0,0Zm-2.222,9.555c-.257-.067.076-.169.239-.118C925.96,529.95,925.74,529.885,925.739,529.983Zm.958.236-.639-.059a.214.214,0,0,1,.239-.237Q926.815,529.8,926.7,530.219Zm1.2-.236a5.724,5.724,0,0,1-.479-.414,3.333,3.333,0,0,0,.559-.118C928.12,529.475,928.021,529.893,927.893,529.983Zm1.525-.781H925.75q-1.078,0-1.077-.437a2.877,2.877,0,0,1,.32-.99l1.488-3.55a.923.923,0,0,1-.613-.109q.03-.669.72-.267a.711.711,0,0,1,.012.091l.8-1.908a.162.162,0,0,1,.3,0l.636,1.64a1.076,1.076,0,0,1,.417.084,1.571,1.571,0,0,1-.3.224l1.515,3.908a4.877,4.877,0,0,1,.32.961Q930.292,529.2,929.418,529.2Zm3.131.107c.154-.034.04-.218,0-.178C932.862,528.821,933,529.386,932.55,529.309Zm.6,3.834h.361C933.688,533.4,932.974,533.4,933.151,533.143Zm1.136,1.71c-.059-.212.414-.156.458-.052A.943.943,0,0,1,934.287,534.853Z" transform="translate(-464.559 -437.708)"/>
    <path id="패스_418" data-name="패스 418" class="cls-2" d="M965.65,536.126q-2.049-.044-2.048-1.221v-.647c-.16.1-.253.077-.3-.032.215-.224.251-.128.3-.048V522.941a.144.144,0,0,1-.015.074c-.37.067-.231-.244-.6-.178.081-.177.574-.112.616.079V517.14a.165.165,0,0,0-.195-.162l-2.1.391c-.143.152-.341.32-.493.475-.128-.137-.019-.274.171-.414l-1.937.361a.164.164,0,0,0-.134.162v.489a.166.166,0,0,0,.164.162q2.078.051,2.078,1.425v5.556a1.42,1.42,0,0,1,.386-.072c.045.152-.279.163-.386.126v7.573a.235.235,0,0,0,.16.182,1.043,1.043,0,0,1-.16.088v1.307q0,1.283-1.817,1.337a.165.165,0,0,0-.163.162v.549a.165.165,0,0,0,.165.165h6.309a.165.165,0,0,0,.165-.165v-.548A.166.166,0,0,0,965.65,536.126Zm-2.161-7.652c.029-.022-.083,2.99,0,0Zm-.383-7.33a2.316,2.316,0,0,1-1.2-.089C962.031,520.75,962.964,521.03,963.106,521.143Zm-.24,1.605c0,.02-.727-.052,0,0Zm-1.237,10.194c.14-.335.585-.269,0,0Zm-.046.789c-.037-.11.117-.275.176-.413C962.117,533.138,961.833,533.569,961.583,533.731Zm.8-8.754c-.05.387-.7-.094,0,0Zm0-1.426c.043-.117.211-.141.24-.268C962.925,523.32,962.632,523.629,962.385,523.551Zm.71,8.922-.378.367C962.449,532.5,963.094,532.475,963.094,532.473Zm.027.459c-.124.124-.25.246-.378.366C962.547,533.051,962.957,532.754,963.121,532.932Zm-.227,1.617c-.3.148-.053-.291.278-.493C963.4,534.128,962.891,534.412,962.894,534.549Zm-.149-9.3c-.124-.3.374-.139.6-.178C963.328,525.261,963.043,525.258,962.745,525.245Z" transform="translate(-485.002 -437.413)"/>
    <path id="패스_419" data-name="패스 419" class="cls-3" d="M999.7,537.8c-.322-.064-.482.363-.482.363a2.38,2.38,0,0,1-.718,1.08,2.246,2.246,0,0,1-1.514.582,1.59,1.59,0,0,1-.815-.175,1.03,1.03,0,0,1-.422-.466,1.958,1.958,0,0,1-.078-.224l-.15.123a.453.453,0,0,1,.114-.254,1.955,1.955,0,0,1-.046-.272c-.019-.223-.029-.451-.029-.684v-6.717a.171.171,0,0,1-.248.032.891.891,0,0,0,.187-.252.149.149,0,0,1,.061-.02v-.4a.3.3,0,0,1,.3-.3h1.259c.306-.272.873-.736.9-.762.17-.008-.451.48-.824.762h1.865a.141.141,0,0,0,.141-.142v-.851c0-.043,0-.292,0-.292a2.942,2.942,0,0,1-1.067.149h-1.7a.872.872,0,0,1-.518-.169.727.727,0,0,0-.18.1c-.051-.024,0-.1.085-.181a.864.864,0,0,1-.262-.617v-3.283a.141.141,0,0,0-.159-.14l-.646.083a.14.14,0,0,0-.117.109,8.592,8.592,0,0,1-1.144,2.829,4.074,4.074,0,0,1-.359.476,1.726,1.726,0,0,0,.684-.128c.244.179-.472.263-.83.286a3.093,3.093,0,0,1-1.555.875.138.138,0,0,0-.107.115l-.082.618a.142.142,0,0,0,.14.16h1.435a.294.294,0,0,1,.069.014c0-.193.011-.44.02-.759.011-.008,0,.4-.008.762a.289.289,0,0,1,.207.237c.007-.1.016-.2.028-.337a2.128,2.128,0,0,1-.019.488v4.705a2.8,2.8,0,0,0,.65-.746c.4.053-.343.6-.65.791v.473c.128-.08.282-.164.434-.27.077.122-.182.369-.434.529v2.411a2.689,2.689,0,0,0,.83,2.2,2.772,2.772,0,0,0,.943.5c.145-.115.321-.2.327-.086,0,.038-.037.09-.091.143a4.514,4.514,0,0,0,1.077.128,4.417,4.417,0,0,0,1.558-.247,2.937,2.937,0,0,0,1.091-.7,3.43,3.43,0,0,0,.7-1.077,7.359,7.359,0,0,0,.387-1.176S1000,537.861,999.7,537.8Zm-4.818-11.333c.31-.17.113.1.15.191C994.719,526.829,994.917,526.56,994.88,526.468Zm-1.13,9.049c.191-.313.091-.543.521-.924Q994.385,534.948,993.75,535.517Zm.629-7.592c-.3-.388.226-.423.517-.612Zm.954,9.972c-.549.315-.3-.38,0,0Z" transform="translate(-501.376 -441.374)"/>
  </g>
</svg>
