<svg xmlns="http://www.w3.org/2000/svg" width="21.895" height="21.878" viewBox="0 0 21.895 21.878">
  <defs>
    <style>
      .cls-1 {
        opacity: 0.8;
      }

      .cls-2 {
        fill: #fff;
      }
    </style>
  </defs>
  <g id="그룹_22" data-name="그룹 22" class="cls-1">
    <path id="패스_10" data-name="패스 10" class="cls-2" d="M4605.645,2781.812a10.523,10.523,0,0,1,1.026-3.6,11.357,11.357,0,0,1,5.1-5.1,10.946,10.946,0,0,1,15.712,9.977,11.173,11.173,0,0,1-.451,2.982,9.849,9.849,0,0,1-.527,1.417c-.183.385-.639.914-.491,1.367.118.364.223.732.326,1.1.356,1.275.792,2.528,1.093,3.819v.042a1.052,1.052,0,0,1-.58-.07c-1.491-.431-2.979-.877-4.468-1.318a.463.463,0,0,0-.387.036,11.178,11.178,0,0,1-7.9,1.152,11,11,0,0,1-8.5-10.041A11.159,11.159,0,0,1,4605.645,2781.812Zm16.136,9.22a.429.429,0,0,1,.39-.058c1.063.322,2.128.633,3.193.948a.222.222,0,0,0,.165.011c-.327-1.109-.649-2.209-.979-3.306a.462.462,0,0,1,.058-.429,9.529,9.529,0,0,0,1.491-6.18,9.616,9.616,0,1,0-13.548,9.672A9.424,9.424,0,0,0,4621.781,2791.031Z" transform="translate(-4605.586 -2772.007)"/>
    <path id="패스_11" data-name="패스 11" class="cls-2" d="M4709.6,2853.794a1.38,1.38,0,0,0-.017-1.934q-.992-1.01-2-2a1.345,1.345,0,0,0-1.958.011c-.157.154-.308.314-.468.465a.876.876,0,0,1-1.243-.012q-1.008-1.037-2-2.088a.784.784,0,0,1,.017-1.142c.167-.174.345-.338.51-.514a1.329,1.329,0,0,0,.012-1.848c-.688-.715-1.393-1.416-2.106-2.107a1.273,1.273,0,0,0-1.607-.157,3.344,3.344,0,0,0-1.269,1.506,5.588,5.588,0,0,0-.189,2.9,9.625,9.625,0,0,0,9.241,8.2A3.6,3.6,0,0,0,4709.6,2853.794Zm-.988-.819a2.41,2.41,0,0,1-2.1.839,8.312,8.312,0,0,1-7.368-5.048,7.5,7.5,0,0,1-.688-3.152,6.312,6.312,0,0,1,.084-.824,2.141,2.141,0,0,1,.813-1.207c.07-.069.126-.022.181.032q.962.964,1.926,1.926c.09.09.066.152-.013.229-.173.168-.347.337-.51.514a2.032,2.032,0,0,0-.049,2.718c.7.78,1.426,1.543,2.179,2.274a2.138,2.138,0,0,0,2.965-.01c.15-.14.3-.285.437-.436.095-.1.164-.122.274-.01q.925.94,1.865,1.867C4708.721,2852.795,4708.708,2852.851,4708.612,2852.975Z" transform="translate(-4691.973 -2838.263)"/>
  </g>
</svg>
