<svg xmlns="http://www.w3.org/2000/svg" width="21.038" height="20.346" viewBox="0 0 21.038 20.346">
  <defs>
    <style>
      .cls-1 {
        fill: #fff;
        opacity: 0.8;
      }
    </style>
  </defs>
  <path id="패스_114" data-name="패스 114" class="cls-1" d="M297.073,229.022h-1.73v-.83a.692.692,0,0,0-1.384,0v.83h-4.5v-.83a.692.692,0,0,0-1.384,0v.83h-4.36v-.83a.692.692,0,0,0-1.384,0v.83h-1.868a2.221,2.221,0,0,0-2.215,2.215v14.394a2.221,2.221,0,0,0,2.215,2.214h16.609a2.221,2.221,0,0,0,2.214-2.214V231.237A2.221,2.221,0,0,0,297.073,229.022Zm-16.609,1.384h1.868v.969a.692.692,0,1,0,1.384,0v-.969h4.36v.969a.692.692,0,1,0,1.384,0v-.969h4.5v.969a.692.692,0,1,0,1.384,0v-.969h1.73a.842.842,0,0,1,.83.83v3.6h-18.27v-3.6A.842.842,0,0,1,280.465,230.407Zm16.609,16.055H280.465a.842.842,0,0,1-.83-.83V236.22H297.9v9.412A.842.842,0,0,1,297.073,246.462Z" transform="translate(-278.25 -227.5)"/>
</svg>
