<svg xmlns="http://www.w3.org/2000/svg" width="21.871" height="21.875" viewBox="0 0 21.871 21.875">
  <defs>
    <style>
      .cls-1 {
        opacity: 0.8;
      }

      .cls-2 {
        fill: #fff;
      }
    </style>
  </defs>
  <g id="그룹_3" data-name="그룹 3" class="cls-1">
    <path id="패스_12" data-name="패스 12" class="cls-2" d="M4998.871,2420.061a1.2,1.2,0,0,0-.385-.925c-.905-.885-1.791-1.79-2.692-2.678a.8.8,0,0,1-.259-.618c.007-3.107,0-6.215.005-9.322a2.529,2.529,0,0,0-.831-1.9,2.153,2.153,0,0,0-1.454-.62h-14.037l-.085.023a2.16,2.16,0,0,0-1.549.816,2.217,2.217,0,0,0-.585,1.336v17.494c.05.177.03.365.1.541a2.59,2.59,0,0,0,2.418,1.665c6.129-.02,12.259-.009,18.389-.01.1,0,.2-.005.3-.013a.726.726,0,0,0,.6-.447.938.938,0,0,0,.063-.439C4998.867,2423.332,4998.86,2421.7,4998.871,2420.061Zm-1.916,4.082c-.774-.008-1.55,0-2.324,0s-1.55,0-2.325,0c-.143,0-.173-.041-.173-.177q.008-1.748,0-3.5a.36.36,0,0,1,.117-.279q1.135-1.126,2.262-2.262c.1-.1.145-.1.245,0q1.132,1.146,2.275,2.278a.33.33,0,0,1,.109.259c0,1.166-.006,2.332,0,3.5C4997.144,2424.113,4997.1,2424.144,4996.955,2424.143Zm-17.307-18.436h13.2a.829.829,0,0,1,.926.916q0,4.725,0,9.449a.4.4,0,0,1-.135.313c-.962.958-1.918,1.922-2.884,2.877a1.065,1.065,0,0,0-.337.815c.009,1.28,0,2.559.007,3.839,0,.169-.027.227-.214.227q-5.3-.01-10.6,0a.832.832,0,0,1-.911-.912q0-4.16,0-8.319v-8.255A.84.84,0,0,1,4979.648,2405.707Z" transform="translate(-4977 -2404)"/>
    <path id="패스_13" data-name="패스 13" class="cls-2" d="M5051.619,2494.181c1.03,0,2.061,0,3.091,0q2.611,0,5.223,0a.866.866,0,0,0,.716-.308.8.8,0,0,0,.123-.9.819.819,0,0,0-.8-.5q-2.079,0-4.157,0t-4.135,0a.923.923,0,0,0-.615.195.852.852,0,0,0,.551,1.512Z" transform="translate(-5046.559 -2487.441)"/>
    <path id="패스_14" data-name="패스 14" class="cls-2" d="M5051.617,2582.7q2.089,0,4.179,0c1.4,0,2.8,0,4.2,0a.852.852,0,1,0,0-1.7q-4.2,0-8.4,0a.819.819,0,0,0-.529.192.852.852,0,0,0,.549,1.513Z" transform="translate(-5046.557 -2570.929)"/>
    <path id="패스_15" data-name="패스 15" class="cls-2" d="M5051.559,2671.2c.838.006,1.677,0,2.516,0h2.43a1.269,1.269,0,0,0,.255-.017.853.853,0,0,0-.185-1.688q-2.495,0-4.989,0a.921.921,0,0,0-.211.021.851.851,0,0,0,.184,1.682Z" transform="translate(-5046.511 -2654.388)"/>
  </g>
</svg>
