<svg id="그룹_189" data-name="그룹 189" xmlns="http://www.w3.org/2000/svg" width="24.516" height="23.992" viewBox="0 0 24.516 23.992">
  <defs>
    <style>
      .cls-1, .cls-2 {
        fill: none;
      }

      .cls-2 {
        stroke: #fff;
        stroke-linecap: round;
        stroke-width: 2px;
      }

      .cls-3, .cls-4 {
        stroke: none;
      }

      .cls-4 {
        fill: #fff;
      }
    </style>
  </defs>
  <g id="패스_468" data-name="패스 468" class="cls-1" transform="translate(0)">
    <path class="cls-3" d="M10.125,0A10.125,10.125,0,1,1,0,10.125,10.125,10.125,0,0,1,10.125,0Z"/>
    <path class="cls-4" d="M 10.12492942810059 2 C 5.644829750061035 2 2 5.644829750061035 2 10.12492942810059 C 2 14.60503005981445 5.644829750061035 18.24985885620117 10.12492942810059 18.24985885620117 C 14.60503005981445 18.24985885620117 18.24985885620117 14.60503005981445 18.24985885620117 10.12492942810059 C 18.24985885620117 5.644829750061035 14.60503005981445 2 10.12492942810059 2 M 10.12492942810059 0 C 15.71676921844482 0 20.24985885620117 4.533089637756348 20.24985885620117 10.12492942810059 C 20.24985885620117 15.71676921844482 15.71676921844482 20.24985885620117 10.12492942810059 20.24985885620117 C 4.533089637756348 20.24985885620117 0 15.71676921844482 0 10.12492942810059 C 0 4.533089637756348 4.533089637756348 0 10.12492942810059 0 Z"/>
  </g>
  <path id="패스_469" data-name="패스 469" class="cls-2" d="M5821.479,375.895l5.7,5.7" transform="translate(-5804.081 -359.021)"/>
</svg>
