<svg xmlns="http://www.w3.org/2000/svg" width="15.219" height="10.993" viewBox="0 0 15.219 10.993">
  <defs>
    <style>
      .cls-1 {
        opacity: 0.5;
      }

      .cls-2 {
        fill: #fff;
      }
    </style>
  </defs>
  <g id="그룹_191" data-name="그룹 191" class="cls-1">
    <path id="패스_500" data-name="패스 500" class="cls-2" d="M35.71,597.484a15.006,15.006,0,0,0-.2-2.395,2.378,2.378,0,0,0-2.021-2.028,21.165,21.165,0,0,0-2.706-.227c-1.46-.062-2.921-.088-4.382-.034a35.828,35.828,0,0,0-3.6.236,2.394,2.394,0,0,0-2.039,1.834,11.309,11.309,0,0,0-.228,1.884c0,.039.025.091-.032.117V599.7c.054.02.029.068.032.1a14.885,14.885,0,0,0,.177,1.652,2.371,2.371,0,0,0,2.022,2.026,21.947,21.947,0,0,0,2.766.229c1.43.06,2.861.085,4.292.033a33.314,33.314,0,0,0,3.629-.239,2.316,2.316,0,0,0,1.96-1.557,5.234,5.234,0,0,0,.247-1.369A27.21,27.21,0,0,0,35.71,597.484Zm-2.558,4.856c-.776.1-1.558.14-2.339.172-1.455.059-2.91.091-4.366.035-1.1-.042-2.207-.065-3.3-.207a2.591,2.591,0,0,1-.393-.074,1.15,1.15,0,0,1-.853-.948,13.879,13.879,0,0,1-.2-2.468,25.039,25.039,0,0,1,.086-2.834,6.439,6.439,0,0,1,.126-.836,1.223,1.223,0,0,1,1.153-.983c.752-.1,1.508-.137,2.265-.169.92-.039,1.841-.063,2.853-.07,1.32.018,2.731.051,4.139.156a8.859,8.859,0,0,1,.9.1,1.215,1.215,0,0,1,1.134,1.14,15.246,15.246,0,0,1,.178,2.456,23.106,23.106,0,0,1-.118,2.951,5.843,5.843,0,0,1-.1.6A1.2,1.2,0,0,1,33.152,602.34Z" transform="translate(-20.5 -592.772)"/>
    <path id="패스_501" data-name="패스 501" class="cls-2" d="M174.432,675.648l4.154-2.4-4.154-2.4Z" transform="translate(-168.333 -667.748)"/>
  </g>
</svg>
